<?xml version="1.0" encoding="UTF-8"?>
<svg id="Layer_1" data-name="Layer 1" xmlns="http://www.w3.org/2000/svg" viewBox="0 0 40 40">
  <defs>
    <style>
      .cls-1 {
        fill: #232323;
      }
    </style>
  </defs>
  <path class="cls-1" d="M26.52,5.81c-4.32-.72-8.73-.72-13.04,0-1.92.32-3.69,1.23-5.06,2.6-1.38,1.37-2.29,3.14-2.61,5.06-.72,4.32-.72,8.73,0,13.04.32,1.92,1.23,3.69,2.6,5.06,1.37,1.38,3.14,2.29,5.06,2.61,4.32.72,8.73.72,13.04,0,1.92-.32,3.69-1.23,5.06-2.6,1.38-1.37,2.29-3.14,2.61-5.06.36-2.16.54-4.34.54-6.52,0-2.19-.18-4.37-.54-6.52-.32-1.92-1.23-3.69-2.6-5.06-1.37-1.37-3.14-2.28-5.06-2.6h0ZM31.38,26.06h0c-.22,1.33-.85,2.56-1.81,3.52-.95.95-2.18,1.59-3.51,1.81-2,.33-4.03.5-6.06.5-2.03,0-4.05-.17-6.05-.5-1.33-.22-2.56-.86-3.51-1.81-.95-.96-1.59-2.18-1.81-3.52-.67-4.01-.67-8.1,0-12.11.22-1.33.85-2.56,1.81-3.52.95-.95,2.18-1.59,3.51-1.81,4.01-.66,8.1-.66,12.11,0,1.33.22,2.56.86,3.51,1.81.95.96,1.59,2.18,1.81,3.52.33,2,.5,4.03.5,6.05,0,2.03-.17,4.05-.5,6.05h0Z"/>
  <path class="cls-1" d="M23.27,16.61l-4.69,4.69-2.32-2.32c-.36-.34-.88-.46-1.36-.33-.48.13-.85.51-.99.99-.13.48,0,.99.33,1.36l2.53,2.53c.48.48,1.13.75,1.8.75s1.32-.27,1.8-.75l4.9-4.9c.27-.27.42-.63.42-1.01s-.15-.74-.42-1.01c-.27-.26-.63-.41-1.01-.41-.38,0-.74.14-1.01.4h0Z"/>
</svg>