<?xml version="1.0" encoding="UTF-8"?>
<svg id="Layer_1" data-name="Layer 1" xmlns="http://www.w3.org/2000/svg" viewBox="0 0 1205.06 1205.06">
  <defs>
    <style>
      .cls-1 {
        fill: #fff;
        stroke: #fff;
        stroke-miterlimit: 10;
        stroke-width: 30px;
      }
    </style>
  </defs>
  <path class="cls-1" d="M602.53,15c162.22,0,309.14,65.77,415.45,172.08,106.31,106.34,172.08,253.19,172.08,415.45s-65.77,309.14-172.08,415.45c-106.34,106.31-253.23,172.08-415.45,172.08s-309.14-65.77-415.45-172.08C80.77,911.64,15,764.75,15,602.53S80.77,293.39,187.08,187.08C293.42,80.77,440.27,15,602.53,15h0ZM310.64,627.33c-15.19,0-27.54-12.35-27.54-27.54s12.35-27.54,27.54-27.54h264.35v-264.35c0-15.19,12.35-27.54,27.54-27.54s27.54,12.35,27.54,27.54v264.35h264.35c15.23,0,27.54,12.35,27.54,27.54s-12.35,27.54-27.54,27.54h-264.35v264.35c0,15.19-12.35,27.54-27.54,27.54s-27.54-12.35-27.54-27.54v-264.35h-264.35ZM979.02,226.03c-96.34-96.34-229.46-155.95-376.49-155.95s-280.16,59.62-376.49,155.95c-96.34,96.34-155.95,229.46-155.95,376.49s59.62,280.16,155.95,376.49c96.34,96.34,229.46,155.95,376.49,155.95s280.16-59.62,376.49-155.95c96.34-96.34,155.95-229.46,155.95-376.49s-59.62-280.16-155.95-376.49h0Z"/>
</svg>