<?xml version="1.0" encoding="UTF-8"?>
<svg id="Layer_1" data-name="Layer 1" xmlns="http://www.w3.org/2000/svg" viewBox="0 0 40 40">
  <defs>
    <style>
      .cls-1 {
        fill: #232323;
      }
    </style>
  </defs>
  <path class="cls-1" d="M34.45,11.22c0-1.8-1.46-3.26-3.26-3.26h-2.19c-3.2,0-6.21,1.04-8.72,3.01l-.29.23-.29-.23c-2.5-1.97-5.51-3.01-8.72-3.01h-2.19c-1.8,0-3.26,1.46-3.26,3.26v16.78c0,1.8,1.46,3.26,3.26,3.26h2.19c2.3,0,4.52.69,6.41,1.99,1.54,1.06,3.64,1.06,5.18,0,1.9-1.3,4.11-1.99,6.41-1.99h2.19c1.8,0,3.26-1.46,3.26-3.26V11.22h0ZM18.61,30.66l-.69-.39c-2.1-1.18-4.49-1.8-6.91-1.8h-2.19c-.26,0-.47-.21-.47-.47V11.22c0-.26.21-.47.47-.47h2.19c2.74,0,5.38.99,7.44,2.79l.16.14v16.97ZM31.66,28c0,.26-.21.47-.47.47h-2.19c-2.42,0-4.81.62-6.91,1.8l-.69.39V13.69l.16-.14c2.06-1.8,4.7-2.79,7.44-2.79h2.19c.26,0,.47.21.47.47v16.78Z"/>
</svg>