<?xml version="1.0" encoding="UTF-8"?>
<svg id="Layer_1" data-name="Layer 1" xmlns="http://www.w3.org/2000/svg" viewBox="0 0 40 40">
  <defs>
    <style>
      .cls-1 {
        fill: #232323;
      }
    </style>
  </defs>
  <path class="cls-1" d="M32.62,12.76v4.02c0,.49-.26.94-.68,1.18-.42.24-.94.24-1.36,0-.41-.24-.68-.69-.68-1.18v-4.02c0-.71-.27-1.38-.78-1.88-.49-.5-1.18-.78-1.88-.78h-14.48c-.7,0-1.39.28-1.88.78-.51.5-.78,1.17-.78,1.88v14.48c0,.7.28,1.39.78,1.88.49.5,1.18.78,1.88.78h4.02c.49,0,.94.27,1.18.68.24.42.24.94,0,1.36-.24.42-.69.68-1.18.68h-4.02c-1.44,0-2.79-.56-3.81-1.57-1.01-1.02-1.57-2.37-1.57-3.81v-14.48c0-1.44.56-2.79,1.57-3.81,1.02-1.01,2.37-1.57,3.81-1.57h14.48c.94,0,1.88.25,2.69.72.82.47,1.5,1.15,1.97,1.97.47.82.72,1.75.72,2.69Z"/>
  <path class="cls-1" d="M31.64,26.71c-.25.42-.7.68-1.18.68h-3.07v3.07c0,.48-.26.93-.68,1.18-.42.24-.94.24-1.36,0-.41-.25-.68-.7-.68-1.18v-3.07h-3.06c-.49,0-.94-.26-1.18-.68-.24-.42-.24-.94,0-1.36.24-.41.69-.68,1.18-.68h3.06v-3.06c0-.36.15-.7.4-.96.51-.51,1.42-.51,1.93,0,.25.26.39.6.39.96v3.06h3.07c.48,0,.93.27,1.18.68.24.42.24.94,0,1.36Z"/>
</svg>