<?xml version="1.0" encoding="UTF-8"?>
<svg id="Layer_1" data-name="Layer 1" xmlns="http://www.w3.org/2000/svg" viewBox="0 0 40 40">
  <defs>
    <style>
      .cls-1 {
        fill: #ffbc15;
      }
    </style>
  </defs>
  <path class="cls-1" d="M13.49,9.99h1.39c.77,0,1.39-.63,1.39-1.39s-.63-1.39-1.39-1.39h-1.39c-3.84,0-6.97,3.13-6.97,6.97v13.01c0,3.84,3.13,6.97,6.97,6.97h13.01c3.84,0,6.97-3.13,6.97-6.97v-1.39c0-.77-.63-1.39-1.39-1.39s-1.39.63-1.39,1.39v1.39c0,2.3-1.88,4.18-4.18,4.18h-13.01c-2.3,0-4.18-1.88-4.18-4.18v-13.01c0-2.3,1.88-4.18,4.18-4.18h-.01Z"/>
  <path class="cls-1" d="M30.46,6.4c-.69-.69-1.6-1.06-2.57-1.06s-1.89.38-2.57,1.06l-9.87,9.87c-.97.97-1.5,2.25-1.5,3.61v3.05c0,1.01.39,1.96,1.11,2.67.72.71,1.66,1.11,2.67,1.11h3.05c1.37,0,2.65-.53,3.61-1.5l9.87-9.87c.69-.69,1.06-1.6,1.06-2.57s-.38-1.89-1.06-2.57l-3.8-3.8h0ZM32.29,13.37l-9.87,9.87c-.44.44-1.02.68-1.64.68h-3.05c-.26,0-.51-.11-.7-.29-.19-.19-.29-.43-.29-.7v-3.05c0-.62.24-1.2.68-1.64l9.87-9.87c.33-.33.87-.33,1.2,0l3.8,3.8c.16.16.25.37.25.6s-.09.44-.25.6h0Z"/>
</svg>