<?xml version="1.0" encoding="UTF-8"?>
<svg id="Layer_1" data-name="Layer 1" xmlns="http://www.w3.org/2000/svg" viewBox="0 0 40 40">
  <defs>
    <style>
      .cls-1 {
        fill: #232323;
      }
    </style>
  </defs>
  <path class="cls-1" d="M7.02,27.54c0,3,2.44,5.44,5.44,5.44h15.08c3,0,5.44-2.44,5.44-5.44v-12.09c0-1.45-.57-2.82-1.6-3.85l-2.99-2.99c-1.03-1.03-2.4-1.6-3.85-1.6h-12.09c-3,0-5.44,2.44-5.44,5.44v15.08ZM9.53,12.46c0-1.62,1.31-2.93,2.93-2.93h12.09c.78,0,1.52.31,2.07.86l2.99,2.99c.55.55.86,1.29.86,2.07v12.09c0,1.62-1.31,2.93-2.93,2.93h-15.08c-1.62,0-2.93-1.31-2.93-2.93v-15.08Z"/>
  <path class="cls-1" d="M15.81,24.61h8.38c.69,0,1.26-.57,1.26-1.26s-.57-1.26-1.26-1.26h-8.38c-.69,0-1.26.57-1.26,1.26s.57,1.26,1.26,1.26Z"/>
  <path class="cls-1" d="M15.81,17.91h8.38c.69,0,1.26-.57,1.26-1.26s-.57-1.26-1.26-1.26h-8.38c-.69,0-1.26.57-1.26,1.26s.57,1.26,1.26,1.26Z"/>
</svg>