<?xml version="1.0" encoding="UTF-8"?>
<svg id="Layer_1" data-name="Layer 1" xmlns="http://www.w3.org/2000/svg" viewBox="0 0 40 40">
  <defs>
    <style>
      .cls-1 {
        fill: #232323;
      }
    </style>
  </defs>
  <path class="cls-1" d="M16.65,17.46c0,1.03-.84,1.87-1.87,1.87s-1.87-.84-1.87-1.87.84-1.87,1.87-1.87,1.87.84,1.87,1.87Z"/>
  <path class="cls-1" d="M26.93,17.46c0,1.03-.84,1.87-1.87,1.87s-1.87-.84-1.87-1.87.84-1.87,1.87-1.87,1.87.84,1.87,1.87Z"/>
  <path class="cls-1" d="M19.69,26.8c1.03.06,2.04-.3,2.79-1.01.75-.71,1.18-1.69,1.17-2.73v-.47c0-.37-.15-.73-.41-.99-.26-.26-.62-.41-.99-.41h-4.67c-.37,0-.73.15-.99.41-.26.26-.41.62-.41.99v.32c-.02.97.34,1.91.99,2.63.65.72,1.55,1.17,2.52,1.25h0Z"/>
  <path class="cls-1" d="M27.86,9.79l1.45.72h0c.16.08.29.21.37.37l.71,1.44c.09.18.25.33.44.4.19.07.4.07.6,0,.19-.07.35-.22.44-.4l.72-1.45h0c.08-.16.21-.29.37-.37l1.44-.71c.18-.09.33-.25.4-.44.07-.19.07-.4,0-.6-.07-.19-.22-.35-.4-.44l-1.45-.72h0c-.16-.08-.29-.21-.37-.37l-.71-1.44c-.09-.18-.25-.33-.44-.4-.19-.07-.4-.07-.6,0-.19.07-.35.22-.44.4l-.72,1.45h0c-.08.16-.21.29-.37.37l-1.44.71c-.18.09-.33.25-.4.44-.07.19-.07.4,0,.6.07.19.22.35.4.44Z"/>
  <path class="cls-1" d="M34.48,20.26c0,2.14-.17,4.29-.52,6.41-.31,1.92-1.2,3.66-2.58,5.03-1.37,1.38-3.11,2.27-5.04,2.58-2.11.35-4.27.53-6.42.53-2.13.03-4.31-.15-6.42-.48-1.92-.32-3.67-1.21-5.04-2.58s-2.27-3.12-2.58-5.04c-.71-4.27-.71-8.59,0-12.86.31-1.92,1.2-3.66,2.58-5.04s3.12-2.26,5.04-2.58c2.11-.35,4.28-.53,6.42-.53.81,0,1.64.03,2.44.07.53.04,1,.36,1.23.83.23.48.19,1.05-.11,1.48-.29.44-.79.69-1.33.65-.74-.05-1.49-.07-2.23-.07-2-.01-3.98.15-5.94.47-1.3.22-2.49.82-3.43,1.76-.93.94-1.54,2.12-1.75,3.43-.66,3.94-.66,7.94,0,11.88.21,1.3.81,2.49,1.75,3.43s2.13,1.54,3.43,1.75c1.96.32,3.93.47,5.94.48,1.98-.01,3.99-.16,5.94-.48,1.31-.21,2.49-.81,3.43-1.75s1.55-2.13,1.76-3.43c.32-1.96.48-3.96.47-5.94,0-.74-.03-1.49-.08-2.23-.03-.41.11-.82.39-1.12.28-.29.67-.47,1.08-.47h.01c.37,0,.73.15,1.01.4.27.26.44.61.46.98.06.81.09,1.63.09,2.44Z"/>
</svg>