<?xml version="1.0" encoding="UTF-8"?>
<svg id="Layer_1" data-name="Layer 1" xmlns="http://www.w3.org/2000/svg" viewBox="0 0 40 40">
  <defs>
    <style>
      .cls-1 {
        fill: #232323;
        stroke: #232323;
        stroke-miterlimit: 10;
        stroke-width: 1.11px;
      }
    </style>
  </defs>
  <path class="cls-1" d="M26.49,6.18c-2.14-.36-4.33-.54-6.49-.54s-4.35.18-6.49.54c-3.76.63-6.71,3.57-7.33,7.33-.72,4.31-.72,8.68,0,12.98.63,3.76,3.57,6.71,7.33,7.33,2.14.36,4.33.54,6.49.54s4.35-.18,6.49-.54c3.76-.63,6.71-3.57,7.33-7.33.35-2.14.54-4.32.54-6.49s-.18-4.36-.54-6.49c-.63-3.76-3.57-6.71-7.33-7.33h0ZM31.94,26.18c-.49,2.95-2.8,5.26-5.76,5.76-1.72.29-3.48.44-5.22.49v-14.42l4.51,4.51c.36.36.93.44,1.29.19.24-.17.39-.42.42-.71.02-.28-.08-.56-.28-.76l-4.59-4.59c-.62-.62-1.44-.96-2.31-.96s-1.69.34-2.31.96l-4.59,4.59c-.2.2-.3.49-.28.78.03.29.18.54.44.71.37.24.89.17,1.22-.17l4.55-4.55v14.42c-1.75-.04-3.5-.21-5.22-.49-2.95-.49-5.26-2.8-5.76-5.76-.68-4.1-.68-8.26,0-12.35.49-2.95,2.8-5.26,5.76-5.76,2.03-.34,4.12-.51,6.18-.51s4.14.17,6.18.51c2.95.49,5.26,2.8,5.76,5.76.34,2.03.51,4.11.51,6.18s-.17,4.14-.51,6.18h0Z"/>
</svg>