<?xml version="1.0" encoding="UTF-8"?>
<svg id="Layer_1" data-name="Layer 1" xmlns="http://www.w3.org/2000/svg" viewBox="0 0 40 40">
  <defs>
    <style>
      .cls-1 {
        fill: #232323;
      }
    </style>
  </defs>
  <path class="cls-1" d="M32.1,27.17v-14.35c0-3.83-5.21-6.72-12.1-6.72s-12.1,2.89-12.1,6.72v14.35c0,3.83,5.21,6.72,12.1,6.72s12.1-2.89,12.1-6.72ZM29.41,27.17c0,1.91-3.86,4.03-9.41,4.03s-9.41-2.13-9.41-4.03v-2.83l.67.39c2.25,1.29,5.35,1.99,8.74,1.99s6.49-.71,8.74-2l.67-.39v2.83ZM29.41,20c0,1.91-3.86,4.03-9.41,4.03s-9.41-2.13-9.41-4.03v-2.83l.67.39c2.25,1.29,5.35,1.99,8.74,1.99s6.49-.71,8.74-2l.67-.39v2.83ZM20,16.86c-5.55,0-9.41-2.13-9.41-4.03s3.86-4.03,9.41-4.03,9.41,2.13,9.41,4.03-3.86,4.03-9.41,4.03Z"/>
</svg>