<?xml version="1.0" encoding="UTF-8"?>
<svg id="Layer_1" data-name="Layer 1" xmlns="http://www.w3.org/2000/svg" viewBox="0 0 297.06 102.35">
  <defs>
    <style>
      .cls-1 {
        fill: #ffbc15;
      }
    </style>
  </defs>
  <path class="cls-1" d="M0,102.35V0h23.4v10.35h-11.52v81.65h11.52v10.35H0Z"/>
  <path class="cls-1" d="M121.77,102.35v-10.35h11.52V10.35h-11.52V0h23.4v102.35h-23.4,0Z"/>
  <g>
    <path class="cls-1" d="M28.01,82.64L51.19,14.1h18.95l23.18,68.54h-15.55l-4.6-13.98h-25.12l-4.6,13.98h-15.46ZM52.02,56.23h17.2l-10.49-32.38h3.86l-10.58,32.38Z"/>
    <path class="cls-1" d="M100.41,82.64V14.1h14.26v68.54h-14.26Z"/>
  </g>
  <g>
    <path d="M161.64,82.64V12.99h5.43v69.64h-5.43Z"/>
    <path d="M182.34,24.22v-10.12h5.43v10.12h-5.43ZM182.34,82.64v-48.85h5.43v48.85h-5.43Z"/>
    <path d="M222.54,83.74c-4.66,0-8.82-1.12-12.47-3.36-3.65-2.24-6.53-5.29-8.65-9.15-2.12-3.86-3.17-8.22-3.17-13.06s1.06-9.18,3.17-13.02c2.12-3.83,5-6.87,8.65-9.11,3.65-2.24,7.8-3.36,12.47-3.36,3.07,0,5.9.52,8.51,1.56,2.61,1.04,4.91,2.47,6.9,4.28,1.99,1.81,3.54,3.85,4.65,6.12l-4.88,2.58c-1.47-2.82-3.53-5.06-6.16-6.72-2.64-1.66-5.64-2.48-9.02-2.48s-6.66.86-9.48,2.58c-2.82,1.72-5.05,4.09-6.67,7.13-1.63,3.04-2.44,6.55-2.44,10.53s.81,7.41,2.44,10.44c1.62,3.04,3.85,5.41,6.67,7.13,2.82,1.72,5.98,2.58,9.48,2.58s6.38-.83,9.02-2.48c2.64-1.66,4.69-3.92,6.16-6.81l4.88,2.58c-1.1,2.27-2.65,4.32-4.65,6.16-1.99,1.84-4.29,3.28-6.9,4.32-2.61,1.04-5.44,1.56-8.51,1.56Z"/>
    <path d="M275.44,83.74c-4.6,0-8.74-1.12-12.42-3.36-3.68-2.24-6.59-5.29-8.74-9.15-2.15-3.86-3.22-8.22-3.22-13.06s1.04-9.28,3.13-13.11c2.08-3.83,4.91-6.85,8.46-9.06,3.56-2.21,7.54-3.31,11.96-3.31,3.37,0,6.42.63,9.15,1.89,2.73,1.26,5.08,2.96,7.04,5.11,1.96,2.15,3.5,4.62,4.6,7.41,1.1,2.79,1.66,5.75,1.66,8.88,0,.61-.03,1.24-.09,1.89-.06.64-.15,1.33-.28,2.07h-42.41v-5.06h39.28l-2.48,2.02c.37-3.62-.15-6.85-1.56-9.71-1.41-2.85-3.42-5.12-6.03-6.81-2.61-1.69-5.57-2.53-8.88-2.53s-6.44.87-9.2,2.62-4.94,4.14-6.53,7.18c-1.6,3.04-2.3,6.55-2.12,10.53-.18,3.99.57,7.53,2.25,10.63,1.69,3.1,3.97,5.5,6.85,7.22,2.88,1.72,6.07,2.58,9.57,2.58s6.65-.84,9.29-2.53c2.64-1.69,4.78-3.91,6.44-6.67l4.6,2.48c-1.04,2.27-2.58,4.31-4.6,6.12-2.02,1.81-4.37,3.22-7.04,4.23s-5.57,1.52-8.69,1.52Z"/>
  </g>
</svg>