<?xml version="1.0" encoding="UTF-8"?>
<svg id="Layer_1" data-name="Layer 1" xmlns="http://www.w3.org/2000/svg" viewBox="0 0 749.2 524.7">
  <defs>
    <style>
      .cls-1, .cls-2 {
        fill: #fcb535;
      }

      .cls-3, .cls-2 {
        opacity: .1;
      }
    </style>
  </defs>
  <path class="cls-2" d="M482.48,480c10.83-49.06,30.97-87.59,37.43-99.15l-95.32-23.28c-4.56,20.25-29.68,63.42-40.95,80.86-11.86,18.35,44.42,104.92,57.18,134.13,18.05,32.73,41.13,66.19,70.03,91.54-17.41-25.72-28.53-54.6-33.14-86.11-4.45-30.48-2.85-63.45,4.77-97.99ZM501.48,385.69c.48-1.42,2.14-1.75,3.56-1.58,2.04.24,3.87,1.36,3.25,3.84-.28,1.1-.73,2.82-2.39,2.78-2.39-.06-4.78-2.67-4.42-5.04h0ZM748.4,463.48c-12.78-26.09-27.24-46-45.41-68.81-28.8-36.14-17.15-76.87-12.1-118.31-.01-.24-.02-.48-.04-.74-11.15-2.07-30.57-1.22-61.73,12.83-60.07,27.08-94.06,78.91-100.72,89.84-.43.69-.74,1.22-.94,1.57l-.08.14-.2.34-.06.09s-.42.7-1.11,1.91c-5.1,8.93-26.44,48.24-37.64,98.99-7.45,33.82-9.03,66.05-4.68,95.8,5.43,37.09,20.14,70.43,43.74,99.1l1.59,1.93-.14.11c23.9,16.64,51.28,27.52,82.54,28.66h0c36.41.39,88.74-5.07,87.86-56.11-.41-24.09-4.78-32.6-26.6-47.31-6.44-3.39-.14-11.76,4.1-5.14,4.61,2.52,18.01,18.61,21.81,14.29,9.52-11.09,18.11-28.1,1.09-36.47-15.79-7.21-34.4,2.25-49.53-7.35-5.92-1.85-3.84-8.54,2.17-7.99,15.21,1.05,28.74-6.37,40.89-14.42,27.1-11.16-8.6-46.35,27.26-53.88,13.17-2.59,32.96-13.8,27.93-29.07h0ZM647.54,332.28c-1.45,1.36-6.11,6.77-6.11,6.77,0,0,13.83,43.19-12.86,49.13h-.01c-25.76-4.98-42.18-16.1-41.33-17.79,3.61-7.23,33.6-38.95,42.79-48.6,1.41-1.48,3.8-1.38,5.08.22l6.62,8.28s8.41-11.03,11.39-10.25c2.66,3.94-2.65,9.6-5.57,12.24h0ZM694.32,493.11c-11.89,13.95-36.51,21.95-34.62-5.42h.01c.93-10.01,2.46-44.52,20.81-36.87.76,1.63-.54,2.74-1.78,2.99-12.92,4.82-10.32,23.13-12.42,35.38-.42,2.48-.05,5.06,1.18,7.25,8.42,14.96,33.08-21.64,47.78-16.99-4.9,5.33-15.16,7.75-20.96,13.66ZM421.08,4.37c-3.65-.09-49.45,117.88-48.45,131.67,1.36,18.78,18.63,19.2,46.77,126.1,1,3.8,15.06,7.48,25.23,9.66,6.16,1.32,10.65,6.63,10.93,12.92l1.56,35.51c.2,4.47-1.77,8.75-5.29,11.5-7.04,5.52-21.07,14.04-25.4,20.07l96.64,23.61c6.91-11.45,41.43-64.45,103.57-92.47,25.27-11.39,46.37-16.07,62.7-13.92.31.04.61.08.91.13-6.57-53.36-63.2-259.48-269.17-264.78h0ZM523.55,364.07c-.28,1.1-.73,2.82-2.39,2.78-2.39-.06-4.78-2.67-4.42-5.04.48-1.42,2.14-1.75,3.56-1.58,2.04.24,3.87,1.36,3.25,3.84Z"/>
  <path class="cls-2" d="M469.48,627.51c-13.48-19.61-26.71-38.9-37.37-60.03h-.01l-2.26-4.51c-20.87-1.67-55.53,5.08-75.01-7.34-5.88-3.74-8.91-10.41-9.09-20.18-.8-43.63-.47-54.99-1.36-60.95-.56-3.76-29.37,11.19-80.45-7.64-202.43-83.56-80.39-371.41,120.86-284.06-1.44-15.46-18.04-34.77-19.45-44.78-1.38-9.87,34.38-103.05,34.38-103.05l-16.94-2.26-6.48,19.84c-1.52,4.66-5.76,7.9-10.67,8.15-19.81.99-71.61,4.74-107.2,17.87C77.4,145.34,74.73,329.72,125.54,487.92c7.22,16.07,44.91,111.74,65.94,111.57,36.26-.3,60.29,2.24,60.29,1.49,0-6.04-3.39-45.93-3.39-45.93l-36.25-6.4c-5.55-.98-10.66-3.68-14.61-7.71l-59.21-60.51c-2.1-2.15-2.33-5.49-.55-7.91,7.81-10.6,28.31-37.57,34.96-37.57,9.07,0,101.27,52.71,101.27,52.71,0,0,37.27,46.68,64.75,74.92,3.84,3.94,2.7,13.66,1.47,19.58-.32,1.55-.65,3.09-.85,4.66-.54,4.32-2.87,5.73-7.72,4.57-12.21-2.92-24.42-5.87-36.64-8.78-5.11-1.22-9.13-5.17-10.43-10.26-1.51-5.89-1.92-12.41-1.92-12.41l-27.86-4.52,5.65,69.27h-28.24l-17.88,76.89-3.88,16.71-14.82,63.7h0l-4.23,18.23-1.73,7.43,36.14,4.05s24.81-100.49,31-136.29c1.24-6.75,1.75-8.55,1.75-8.55l25.41,12.42-1.69-33.51,37.65-1.88s-3-11.93-2.56-15.93c-1.61-20.72,27.4-35.28,40.2-14.57,6.4,10.35,11.36,27.62,13.21,27.31,8.21-1.37,13.99-1.85,24.33-1.85,1.23,0-1.05-26,.92-33.87.31-1.23,16.59-.34,23.1.31,3.08.31-.15,37.42,3.7,38.19,12.66,1.14,35.22,1.98,44.11,3.9,2.58.56,3.2-18.92,2.55-19.87h0ZM131.38,270.14c-26.04-.83-1.95-59.56,10.1-80.64,42.7-74.74,135.22-113.51,218.98-110.72,2.34.08,4.27,1.94,4.39,4.28.53,10.67-15.47,58.14-20.54,62.99-3.87,3.71-111.16-35.81-184.58,86.56-10.16,16.94-7.96,39.49-28.35,37.53h0Z"/>
  <path class="cls-2" d="M362.43,400.29c-5.9,3.93-10.68,5.69-13.24,6.43l-2.24,11.87c9.71-2.71,18.21-8.87,25.63-13.05l-10.15-5.25h0ZM268.9,217.4c-12.32,5.83-22.96,13.52-32.11,22.86l15.88,5.78c4.21-3.41,16.84-12.47,34.96-15.14l.64-19.71c-6.69,1.38-13.24,3.61-19.37,6.21h0ZM229.94,364.42l-10.64.4c6.47,11.99,13.49,24.15,23.51,33.51l3.35-12.96c-6.73-5.47-13.67-16.63-16.22-20.95ZM362.43,400.29c-5.9,3.93-10.68,5.69-13.24,6.43l-2.24,11.87c9.71-2.71,18.21-8.87,25.63-13.05l-10.15-5.25h0ZM268.9,217.4c-12.32,5.83-22.96,13.52-32.11,22.86l15.88,5.78c4.21-3.41,16.84-12.47,34.96-15.14l.64-19.71c-6.69,1.38-13.24,3.61-19.37,6.21h0ZM229.94,364.42l-10.64.4c6.47,11.99,13.49,24.15,23.51,33.51l3.35-12.96c-6.73-5.47-13.67-16.63-16.22-20.95ZM362.43,400.29c-5.9,3.93-10.68,5.69-13.24,6.43l-2.24,11.87c9.71-2.71,18.21-8.87,25.63-13.05l-10.15-5.25h0ZM268.9,217.4c-12.32,5.83-22.96,13.52-32.11,22.86l15.88,5.78c4.21-3.41,16.84-12.47,34.96-15.14l.64-19.71c-6.69,1.38-13.24,3.61-19.37,6.21h0ZM229.94,364.42l-10.64.4c6.47,11.99,13.49,24.15,23.51,33.51l3.35-12.96c-6.73-5.47-13.67-16.63-16.22-20.95ZM362.43,400.29c-5.9,3.93-10.68,5.69-13.24,6.43l-2.24,11.87c9.71-2.71,18.21-8.87,25.63-13.05l-10.15-5.25h0ZM268.9,217.4c-12.32,5.83-22.96,13.52-32.11,22.86l15.88,5.78c4.21-3.41,16.84-12.47,34.96-15.14l.64-19.71c-6.69,1.38-13.24,3.61-19.37,6.21h0ZM229.94,364.42l-10.64.4c6.47,11.99,13.49,24.15,23.51,33.51l3.35-12.96c-6.73-5.47-13.67-16.63-16.22-20.95ZM362.43,400.29c-5.9,3.93-10.68,5.69-13.24,6.43l-2.24,11.87c9.71-2.71,18.21-8.87,25.63-13.05l-10.15-5.25h0ZM268.9,217.4c-12.32,5.83-22.96,13.52-32.11,22.86l15.88,5.78c4.21-3.41,16.84-12.47,34.96-15.14l.64-19.71c-6.69,1.38-13.24,3.61-19.37,6.21h0ZM229.94,364.42l-10.64.4c6.47,11.99,13.49,24.15,23.51,33.51l3.35-12.96c-6.73-5.47-13.67-16.63-16.22-20.95ZM362.43,400.29c-5.9,3.93-10.68,5.69-13.24,6.43l-2.24,11.87c9.71-2.71,18.21-8.87,25.63-13.05l-10.15-5.25h0ZM268.9,217.4c-12.32,5.83-22.96,13.52-32.11,22.86l15.88,5.78c4.21-3.41,16.84-12.47,34.96-15.14l.64-19.71c-6.69,1.38-13.24,3.61-19.37,6.21h0ZM229.94,364.42l-10.64.4c6.47,11.99,13.49,24.15,23.51,33.51l3.35-12.96c-6.73-5.47-13.67-16.63-16.22-20.95ZM362.43,400.29c-5.9,3.93-10.68,5.69-13.24,6.43l-2.24,11.87c9.71-2.71,18.21-8.87,25.63-13.05l-10.15-5.25h0ZM268.9,217.4c-12.32,5.83-22.96,13.52-32.11,22.86l15.88,5.78c4.21-3.41,16.84-12.47,34.96-15.14l.64-19.71c-6.69,1.38-13.24,3.61-19.37,6.21h0ZM229.94,364.42l-10.64.4c6.47,11.99,13.49,24.15,23.51,33.51l3.35-12.96c-6.73-5.47-13.67-16.63-16.22-20.95ZM362.43,400.29c-5.9,3.93-10.68,5.69-13.24,6.43l-2.24,11.87c9.71-2.71,18.21-8.87,25.63-13.05l-10.15-5.25h0ZM268.9,217.4c-12.32,5.83-22.96,13.52-32.11,22.86l15.88,5.78c4.21-3.41,16.84-12.47,34.96-15.14l.64-19.71c-6.69,1.38-13.24,3.61-19.37,6.21h0ZM229.94,364.42l-10.64.4c6.47,11.99,13.49,24.15,23.51,33.51l3.35-12.96c-6.73-5.47-13.67-16.63-16.22-20.95ZM362.43,400.29c-5.9,3.93-10.68,5.69-13.24,6.43l-2.24,11.87c9.71-2.71,18.21-8.87,25.63-13.05l-10.15-5.25h0ZM268.9,217.4c-12.32,5.83-22.96,13.52-32.11,22.86l15.88,5.78c4.21-3.41,16.84-12.47,34.96-15.14l.64-19.71c-6.69,1.38-13.24,3.61-19.37,6.21h0ZM229.94,364.42l-10.64.4c6.47,11.99,13.49,24.15,23.51,33.51l3.35-12.96c-6.73-5.47-13.67-16.63-16.22-20.95ZM362.43,400.29c-5.9,3.93-10.68,5.69-13.24,6.43l-2.24,11.87c9.71-2.71,18.21-8.87,25.63-13.05l-10.15-5.25h0ZM268.9,217.4c-12.32,5.83-22.96,13.52-32.11,22.86l15.88,5.78c4.21-3.41,16.84-12.47,34.96-15.14l.64-19.71c-6.69,1.38-13.24,3.61-19.37,6.21h0ZM229.94,364.42l-10.64.4c6.47,11.99,13.49,24.15,23.51,33.51l3.35-12.96c-6.73-5.47-13.67-16.63-16.22-20.95ZM362.43,400.29c-5.9,3.93-10.68,5.69-13.24,6.43l-2.24,11.87c9.71-2.71,18.21-8.87,25.63-13.05l-10.15-5.25h0ZM268.9,217.4c-12.32,5.83-22.96,13.52-32.11,22.86l15.88,5.78c4.21-3.41,16.84-12.47,34.96-15.14l.64-19.71c-6.69,1.38-13.24,3.61-19.37,6.21h0ZM229.94,364.42l-10.64.4c6.47,11.99,13.49,24.15,23.51,33.51l3.35-12.96c-6.73-5.47-13.67-16.63-16.22-20.95ZM362.43,400.29c-5.9,3.93-10.68,5.69-13.24,6.43l-2.24,11.87c9.71-2.71,18.21-8.87,25.63-13.05l-10.15-5.25h0ZM268.9,217.4c-12.32,5.83-22.96,13.52-32.11,22.86l15.88,5.78c4.21-3.41,16.84-12.47,34.96-15.14l.64-19.71c-6.69,1.38-13.24,3.61-19.37,6.21h0ZM229.94,364.42l-10.64.4c6.47,11.99,13.49,24.15,23.51,33.51l3.35-12.96c-6.73-5.47-13.67-16.63-16.22-20.95ZM362.43,400.29c-5.9,3.93-10.68,5.69-13.24,6.43l-2.24,11.87c9.71-2.71,18.21-8.87,25.63-13.05l-10.15-5.25h0ZM268.9,217.4c-12.32,5.83-22.96,13.52-32.11,22.86l15.88,5.78c4.21-3.41,16.84-12.47,34.96-15.14l.64-19.71c-6.69,1.38-13.24,3.61-19.37,6.21h0ZM229.94,364.42l-10.64.4c6.47,11.99,13.49,24.15,23.51,33.51l3.35-12.96c-6.73-5.47-13.67-16.63-16.22-20.95ZM362.43,400.29c-5.9,3.93-10.68,5.69-13.24,6.43l-2.24,11.87c9.71-2.71,18.21-8.87,25.63-13.05l-10.15-5.25h0ZM268.9,217.4c-12.32,5.83-22.96,13.52-32.11,22.86l15.88,5.78c4.21-3.41,16.84-12.47,34.96-15.14l.64-19.71c-6.69,1.38-13.24,3.61-19.37,6.21h0ZM229.94,364.42l-10.64.4c6.47,11.99,13.49,24.15,23.51,33.51l3.35-12.96c-6.73-5.47-13.67-16.63-16.22-20.95ZM362.43,400.29c-5.9,3.93-10.68,5.69-13.24,6.43l-2.24,11.87c9.71-2.71,18.21-8.87,25.63-13.05l-10.15-5.25h0ZM268.9,217.4c-12.32,5.83-22.96,13.52-32.11,22.86l15.88,5.78c4.21-3.41,16.84-12.47,34.96-15.14l.64-19.71c-6.69,1.38-13.24,3.61-19.37,6.21h0ZM229.94,364.42l-10.64.4c6.47,11.99,13.49,24.15,23.51,33.51l3.35-12.96c-6.73-5.47-13.67-16.63-16.22-20.95ZM376.62,446.01c-.07-1.04-.09-2.1-.04-3.18-19.72,10.47-41.98,16.01-64.46,16.01-75.86,0-137.57-61.72-137.57-137.58s61.71-137.57,137.57-137.57c31.18,0,61.56,10.65,85.85,30.07-.55-1.69-1.1-3.38-1.65-5.05-.19-.57-.37-1.13-.56-1.7-1.27-3.83-2.54-7.6-3.81-11.29-80.44-59.29-210.39-.89-225.33,98.47-21.25,112.6,94.76,210.88,211.37,163.44.91-.37-.74-4.91-1.27-10.5-.04-.37-.07-.74-.1-1.12ZM362.43,400.29c-5.9,3.93-10.68,5.69-13.24,6.43l-2.24,11.87c9.71-2.71,18.21-8.87,25.63-13.05l-10.15-5.25h0ZM229.94,364.42l-10.64.4c6.47,11.99,13.49,24.15,23.51,33.51l3.35-12.96c-6.73-5.47-13.67-16.63-16.22-20.95ZM268.9,217.4c-12.32,5.83-22.96,13.52-32.11,22.86l15.88,5.78c4.21-3.41,16.84-12.47,34.96-15.14l.64-19.71c-6.69,1.38-13.24,3.61-19.37,6.21h0ZM268.9,217.4c-12.32,5.83-22.96,13.52-32.11,22.86l15.88,5.78c4.21-3.41,16.84-12.47,34.96-15.14l.64-19.71c-6.69,1.38-13.24,3.61-19.37,6.21h0ZM362.43,400.29c-5.9,3.93-10.68,5.69-13.24,6.43l-2.24,11.87c9.71-2.71,18.21-8.87,25.63-13.05l-10.15-5.25h0ZM229.94,364.42l-10.64.4c6.47,11.99,13.49,24.15,23.51,33.51l3.35-12.96c-6.73-5.47-13.67-16.63-16.22-20.95ZM268.9,217.4c-12.32,5.83-22.96,13.52-32.11,22.86l15.88,5.78c4.21-3.41,16.84-12.47,34.96-15.14l.64-19.71c-6.69,1.38-13.24,3.61-19.37,6.21h0ZM229.94,364.42l-10.64.4c6.47,11.99,13.49,24.15,23.51,33.51l3.35-12.96c-6.73-5.47-13.67-16.63-16.22-20.95ZM268.9,217.4c-12.32,5.83-22.96,13.52-32.11,22.86l15.88,5.78c4.21-3.41,16.84-12.47,34.96-15.14l.64-19.71c-6.69,1.38-13.24,3.61-19.37,6.21h0ZM362.43,400.29c-5.9,3.93-10.68,5.69-13.24,6.43l-2.24,11.87c9.71-2.71,18.21-8.87,25.63-13.05l-10.15-5.25h0ZM229.94,364.42l-10.64.4c6.47,11.99,13.49,24.15,23.51,33.51l3.35-12.96c-6.73-5.47-13.67-16.63-16.22-20.95ZM268.9,217.4c-12.32,5.83-22.96,13.52-32.11,22.86l15.88,5.78c4.21-3.41,16.84-12.47,34.96-15.14l.64-19.71c-6.69,1.38-13.24,3.61-19.37,6.21h0ZM229.94,364.42l-10.64.4c6.47,11.99,13.49,24.15,23.51,33.51l3.35-12.96c-6.73-5.47-13.67-16.63-16.22-20.95ZM268.9,217.4c-12.32,5.83-22.96,13.52-32.11,22.86l15.88,5.78c4.21-3.41,16.84-12.47,34.96-15.14l.64-19.71c-6.69,1.38-13.24,3.61-19.37,6.21h0ZM362.43,400.29c-5.9,3.93-10.68,5.69-13.24,6.43l-2.24,11.87c9.71-2.71,18.21-8.87,25.63-13.05l-10.15-5.25h0ZM362.43,400.29c-5.9,3.93-10.68,5.69-13.24,6.43l-2.24,11.87c9.71-2.71,18.21-8.87,25.63-13.05l-10.15-5.25h0ZM229.94,364.42l-10.64.4c6.47,11.99,13.49,24.15,23.51,33.51l3.35-12.96c-6.73-5.47-13.67-16.63-16.22-20.95ZM268.9,217.4c-12.32,5.83-22.96,13.52-32.11,22.86l15.88,5.78c4.21-3.41,16.84-12.47,34.96-15.14l.64-19.71c-6.69,1.38-13.24,3.61-19.37,6.21h0ZM229.94,364.42l-10.64.4c6.47,11.99,13.49,24.15,23.51,33.51l3.35-12.96c-6.73-5.47-13.67-16.63-16.22-20.95ZM268.9,217.4c-12.32,5.83-22.96,13.52-32.11,22.86l15.88,5.78c4.21-3.41,16.84-12.47,34.96-15.14l.64-19.71c-6.69,1.38-13.24,3.61-19.37,6.21h0ZM362.43,400.29c-5.9,3.93-10.68,5.69-13.24,6.43l-2.24,11.87c9.71-2.71,18.21-8.87,25.63-13.05l-10.15-5.25h0ZM362.43,400.29c-5.9,3.93-10.68,5.69-13.24,6.43l-2.24,11.87c9.71-2.71,18.21-8.87,25.63-13.05l-10.15-5.25h0ZM229.94,364.42l-10.64.4c6.47,11.99,13.49,24.15,23.51,33.51l3.35-12.96c-6.73-5.47-13.67-16.63-16.22-20.95ZM268.9,217.4c-12.32,5.83-22.96,13.52-32.11,22.86l15.88,5.78c4.21-3.41,16.84-12.47,34.96-15.14l.64-19.71c-6.69,1.38-13.24,3.61-19.37,6.21h0ZM229.94,364.42l-10.64.4c6.47,11.99,13.49,24.15,23.51,33.51l3.35-12.96c-6.73-5.47-13.67-16.63-16.22-20.95ZM268.9,217.4c-12.32,5.83-22.96,13.52-32.11,22.86l15.88,5.78c4.21-3.41,16.84-12.47,34.96-15.14l.64-19.71c-6.69,1.38-13.24,3.61-19.37,6.21h0ZM362.43,400.29c-5.9,3.93-10.68,5.69-13.24,6.43l-2.24,11.87c9.71-2.71,18.21-8.87,25.63-13.05l-10.15-5.25h0ZM362.43,400.29c-5.9,3.93-10.68,5.69-13.24,6.43l-2.24,11.87c9.71-2.71,18.21-8.87,25.63-13.05l-10.15-5.25h0ZM229.94,364.42l-10.64.4c6.47,11.99,13.49,24.15,23.51,33.51l3.35-12.96c-6.73-5.47-13.67-16.63-16.22-20.95ZM268.9,217.4c-12.32,5.83-22.96,13.52-32.11,22.86l15.88,5.78c4.21-3.41,16.84-12.47,34.96-15.14l.64-19.71c-6.69,1.38-13.24,3.61-19.37,6.21h0ZM229.94,364.42l-10.64.4c6.47,11.99,13.49,24.15,23.51,33.51l3.35-12.96c-6.73-5.47-13.67-16.63-16.22-20.95ZM268.9,217.4c-12.32,5.83-22.96,13.52-32.11,22.86l15.88,5.78c4.21-3.41,16.84-12.47,34.96-15.14l.64-19.71c-6.69,1.38-13.24,3.61-19.37,6.21h0ZM362.43,400.29c-5.9,3.93-10.68,5.69-13.24,6.43l-2.24,11.87c9.71-2.71,18.21-8.87,25.63-13.05l-10.15-5.25h0ZM362.43,400.29c-5.9,3.93-10.68,5.69-13.24,6.43l-2.24,11.87c9.71-2.71,18.21-8.87,25.63-13.05l-10.15-5.25h0ZM229.94,364.42l-10.64.4c6.47,11.99,13.49,24.15,23.51,33.51l3.35-12.96c-6.73-5.47-13.67-16.63-16.22-20.95ZM268.9,217.4c-12.32,5.83-22.96,13.52-32.11,22.86l15.88,5.78c4.21-3.41,16.84-12.47,34.96-15.14l.64-19.71c-6.69,1.38-13.24,3.61-19.37,6.21h0ZM447.92,281.73s-32.38-9.04-33.51-13.18c-4.3-15.78-9.37-32.76-14.63-49.2l-1.67,2.01-1.84-1.53c-23.58-19.57-53.46-30.35-84.15-30.35-72.66,0-131.78,59.12-131.78,131.78s59.12,131.79,131.78,131.79c21.95,0,43.67-5.5,62.83-15.91l2.11-1.15.54,1c.49-1.44,1.19-2.83,2.15-4.13,36.93-49.86,39.94-85.25,39.94-85.25l29.74-22.21-1.51-43.67h0ZM366,215.71c21.69-.59,19.56,31.42,0,31.06-21.44.54-21.63-31.55,0-31.06ZM216.16,260.95c10.22-33.51,54.98-57.62,90.07-58.17,6.28-1.32,18.82,6.08,6.52,7.8-6.13-1.19-12.43-1.2-18.66-.39l-.83,25.87-2.49.27c-21.34,2.37-35.41,15.01-35.55,15.14l-1.29,1.19-21.41-7.78c-4.73,5.36-9.01,11.21-12.9,17.49,0,.02-.03.03-.03.05-1.16,1.94-4.09.68-3.43-1.47h0ZM209.25,293.28c23.06-.04,16.48,33.89-3.2,33.18-23.15-.22-17.29-32.92,3.2-33.18ZM256.38,412.56c-15.16.11-46.08-39.82-47.98-57.79-.29-2.71,3.41-3.82,4.72-1.44,1.05,1.91,2.1,3.86,3.15,5.82l16.97-.65.86,1.55c3.29,5.8,11.07,17.82,16.96,21.75l1.71,1.14-5.05,19.55c.67.52,1.36,1.03,2.06,1.52,2.88,1.32,7.38,2.92,8.33,6.28.32,1.13-.56,2.27-1.73,2.27h0ZM295.96,443.76c-.35.04-.7.06-1.04.08-16.41.83-20.61-22.54-5.09-27.94,4.49-1.57,9.15-3.15,13.91-3.48,24.91,3.06,9.5,31.57-7.78,31.34h0ZM309,260.21c78.25-2.95,90.04,108.99,15.02,124.67-91.53,18.09-107.96-124.54-15.02-124.67h0ZM383.5,405.15c-11.22,9.39-47.4,27.05-46.07,18.06.25-1.75,1.69-3.05,3.4-3.39l3.38-18,2-.33s6.17-1.15,14.34-6.93l1.43-1.02,17.13,8.85c.9-.33,1.77-.59,2.63-.78h0c2.06-.44,3.38,2.18,1.76,3.54h0ZM429.28,304.94c-3.15,17.45-12.41-8.27-5.15-9.89,4.95-.62,6.1,3.62,5.15,9.89ZM438.38,321.87c-1.86-11.95-3.24-41.37,3.6-36.34.99.73,1.51,1.94,1.52,3.18.1,11.03.85,22.36.85,33.38,0,5.11-5.36,3.7-5.97-.22ZM349.19,406.72l-2.24,11.87c9.71-2.71,18.21-8.87,25.63-13.05l-10.15-5.25c-5.9,3.93-10.68,5.69-13.24,6.43h0ZM287.63,230.9l.64-19.71c-6.69,1.38-13.24,3.61-19.37,6.21-12.32,5.83-22.96,13.52-32.11,22.86l15.88,5.78c4.21-3.41,16.84-12.47,34.96-15.14h0ZM229.94,364.42l-10.64.4c6.47,11.99,13.49,24.15,23.51,33.51l3.35-12.96c-6.73-5.47-13.67-16.63-16.22-20.95ZM268.9,217.4c-12.32,5.83-22.96,13.52-32.11,22.86l15.88,5.78c4.21-3.41,16.84-12.47,34.96-15.14l.64-19.71c-6.69,1.38-13.24,3.61-19.37,6.21h0ZM229.94,364.42l-10.64.4c6.47,11.99,13.49,24.15,23.51,33.51l3.35-12.96c-6.73-5.47-13.67-16.63-16.22-20.95ZM362.43,400.29c-5.9,3.93-10.68,5.69-13.24,6.43l-2.24,11.87c9.71-2.71,18.21-8.87,25.63-13.05l-10.15-5.25h0ZM362.43,400.29c-5.9,3.93-10.68,5.69-13.24,6.43l-2.24,11.87c9.71-2.71,18.21-8.87,25.63-13.05l-10.15-5.25h0ZM268.9,217.4c-12.32,5.83-22.96,13.52-32.11,22.86l15.88,5.78c4.21-3.41,16.84-12.47,34.96-15.14l.64-19.71c-6.69,1.38-13.24,3.61-19.37,6.21h0ZM229.94,364.42l-10.64.4c6.47,11.99,13.49,24.15,23.51,33.51l3.35-12.96c-6.73-5.47-13.67-16.63-16.22-20.95ZM268.9,217.4c-12.32,5.83-22.96,13.52-32.11,22.86l15.88,5.78c4.21-3.41,16.84-12.47,34.96-15.14l.64-19.71c-6.69,1.38-13.24,3.61-19.37,6.21h0ZM229.94,364.42l-10.64.4c6.47,11.99,13.49,24.15,23.51,33.51l3.35-12.96c-6.73-5.47-13.67-16.63-16.22-20.95ZM362.43,400.29c-5.9,3.93-10.68,5.69-13.24,6.43l-2.24,11.87c9.71-2.71,18.21-8.87,25.63-13.05l-10.15-5.25h0ZM362.43,400.29c-5.9,3.93-10.68,5.69-13.24,6.43l-2.24,11.87c9.71-2.71,18.21-8.87,25.63-13.05l-10.15-5.25h0ZM268.9,217.4c-12.32,5.83-22.96,13.52-32.11,22.86l15.88,5.78c4.21-3.41,16.84-12.47,34.96-15.14l.64-19.71c-6.69,1.38-13.24,3.61-19.37,6.21h0ZM229.94,364.42l-10.64.4c6.47,11.99,13.49,24.15,23.51,33.51l3.35-12.96c-6.73-5.47-13.67-16.63-16.22-20.95ZM268.9,217.4c-12.32,5.83-22.96,13.52-32.11,22.86l15.88,5.78c4.21-3.41,16.84-12.47,34.96-15.14l.64-19.71c-6.69,1.38-13.24,3.61-19.37,6.21h0ZM229.94,364.42l-10.64.4c6.47,11.99,13.49,24.15,23.51,33.51l3.35-12.96c-6.73-5.47-13.67-16.63-16.22-20.95ZM362.43,400.29c-5.9,3.93-10.68,5.69-13.24,6.43l-2.24,11.87c9.71-2.71,18.21-8.87,25.63-13.05l-10.15-5.25h0ZM362.43,400.29c-5.9,3.93-10.68,5.69-13.24,6.43l-2.24,11.87c9.71-2.71,18.21-8.87,25.63-13.05l-10.15-5.25h0ZM268.9,217.4c-12.32,5.83-22.96,13.52-32.11,22.86l15.88,5.78c4.21-3.41,16.84-12.47,34.96-15.14l.64-19.71c-6.69,1.38-13.24,3.61-19.37,6.21h0ZM229.94,364.42l-10.64.4c6.47,11.99,13.49,24.15,23.51,33.51l3.35-12.96c-6.73-5.47-13.67-16.63-16.22-20.95ZM268.9,217.4c-12.32,5.83-22.96,13.52-32.11,22.86l15.88,5.78c4.21-3.41,16.84-12.47,34.96-15.14l.64-19.71c-6.69,1.38-13.24,3.61-19.37,6.21h0ZM229.94,364.42l-10.64.4c6.47,11.99,13.49,24.15,23.51,33.51l3.35-12.96c-6.73-5.47-13.67-16.63-16.22-20.95ZM362.43,400.29c-5.9,3.93-10.68,5.69-13.24,6.43l-2.24,11.87c9.71-2.71,18.21-8.87,25.63-13.05l-10.15-5.25h0ZM362.43,400.29c-5.9,3.93-10.68,5.69-13.24,6.43l-2.24,11.87c9.71-2.71,18.21-8.87,25.63-13.05l-10.15-5.25h0ZM268.9,217.4c-12.32,5.83-22.96,13.52-32.11,22.86l15.88,5.78c4.21-3.41,16.84-12.47,34.96-15.14l.64-19.71c-6.69,1.38-13.24,3.61-19.37,6.21h0ZM229.94,364.42l-10.64.4c6.47,11.99,13.49,24.15,23.51,33.51l3.35-12.96c-6.73-5.47-13.67-16.63-16.22-20.95ZM268.9,217.4c-12.32,5.83-22.96,13.52-32.11,22.86l15.88,5.78c4.21-3.41,16.84-12.47,34.96-15.14l.64-19.71c-6.69,1.38-13.24,3.61-19.37,6.21h0ZM229.94,364.42l-10.64.4c6.47,11.99,13.49,24.15,23.51,33.51l3.35-12.96c-6.73-5.47-13.67-16.63-16.22-20.95ZM362.43,400.29c-5.9,3.93-10.68,5.69-13.24,6.43l-2.24,11.87c9.71-2.71,18.21-8.87,25.63-13.05l-10.15-5.25h0ZM268.9,217.4c-12.32,5.83-22.96,13.52-32.11,22.86l15.88,5.78c4.21-3.41,16.84-12.47,34.96-15.14l.64-19.71c-6.69,1.38-13.24,3.61-19.37,6.21h0ZM229.94,364.42l-10.64.4c6.47,11.99,13.49,24.15,23.51,33.51l3.35-12.96c-6.73-5.47-13.67-16.63-16.22-20.95ZM268.9,217.4c-12.32,5.83-22.96,13.52-32.11,22.86l15.88,5.78c4.21-3.41,16.84-12.47,34.96-15.14l.64-19.71c-6.69,1.38-13.24,3.61-19.37,6.21h0ZM229.94,364.42l-10.64.4c6.47,11.99,13.49,24.15,23.51,33.51l3.35-12.96c-6.73-5.47-13.67-16.63-16.22-20.95ZM362.43,400.29c-5.9,3.93-10.68,5.69-13.24,6.43l-2.24,11.87c9.71-2.71,18.21-8.87,25.63-13.05l-10.15-5.25h0ZM268.9,217.4c-12.32,5.83-22.96,13.52-32.11,22.86l15.88,5.78c4.21-3.41,16.84-12.47,34.96-15.14l.64-19.71c-6.69,1.38-13.24,3.61-19.37,6.21h0ZM229.94,364.42l-10.64.4c6.47,11.99,13.49,24.15,23.51,33.51l3.35-12.96c-6.73-5.47-13.67-16.63-16.22-20.95ZM268.9,217.4c-12.32,5.83-22.96,13.52-32.11,22.86l15.88,5.78c4.21-3.41,16.84-12.47,34.96-15.14l.64-19.71c-6.69,1.38-13.24,3.61-19.37,6.21h0ZM362.43,400.29c-5.9,3.93-10.68,5.69-13.24,6.43l-2.24,11.87c9.71-2.71,18.21-8.87,25.63-13.05l-10.15-5.25h0ZM229.94,364.42l-10.64.4c6.47,11.99,13.49,24.15,23.51,33.51l3.35-12.96c-6.73-5.47-13.67-16.63-16.22-20.95ZM268.9,217.4c-12.32,5.83-22.96,13.52-32.11,22.86l15.88,5.78c4.21-3.41,16.84-12.47,34.96-15.14l.64-19.71c-6.69,1.38-13.24,3.61-19.37,6.21h0ZM362.43,400.29c-5.9,3.93-10.68,5.69-13.24,6.43l-2.24,11.87c9.71-2.71,18.21-8.87,25.63-13.05l-10.15-5.25h0ZM229.94,364.42l-10.64.4c6.47,11.99,13.49,24.15,23.51,33.51l3.35-12.96c-6.73-5.47-13.67-16.63-16.22-20.95ZM268.9,217.4c-12.32,5.83-22.96,13.52-32.11,22.86l15.88,5.78c4.21-3.41,16.84-12.47,34.96-15.14l.64-19.71c-6.69,1.38-13.24,3.61-19.37,6.21h0ZM362.43,400.29c-5.9,3.93-10.68,5.69-13.24,6.43l-2.24,11.87c9.71-2.71,18.21-8.87,25.63-13.05l-10.15-5.25h0ZM229.94,364.42l-10.64.4c6.47,11.99,13.49,24.15,23.51,33.51l3.35-12.96c-6.73-5.47-13.67-16.63-16.22-20.95ZM268.9,217.4c-12.32,5.83-22.96,13.52-32.11,22.86l15.88,5.78c4.21-3.41,16.84-12.47,34.96-15.14l.64-19.71c-6.69,1.38-13.24,3.61-19.37,6.21h0ZM362.43,400.29c-5.9,3.93-10.68,5.69-13.24,6.43l-2.24,11.87c9.71-2.71,18.21-8.87,25.63-13.05l-10.15-5.25h0ZM229.94,364.42l-10.64.4c6.47,11.99,13.49,24.15,23.51,33.51l3.35-12.96c-6.73-5.47-13.67-16.63-16.22-20.95ZM268.9,217.4c-12.32,5.83-22.96,13.52-32.11,22.86l15.88,5.78c4.21-3.41,16.84-12.47,34.96-15.14l.64-19.71c-6.69,1.38-13.24,3.61-19.37,6.21h0ZM362.43,400.29c-5.9,3.93-10.68,5.69-13.24,6.43l-2.24,11.87c9.71-2.71,18.21-8.87,25.63-13.05l-10.15-5.25h0ZM229.94,364.42l-10.64.4c6.47,11.99,13.49,24.15,23.51,33.51l3.35-12.96c-6.73-5.47-13.67-16.63-16.22-20.95ZM268.9,217.4c-12.32,5.83-22.96,13.52-32.11,22.86l15.88,5.78c4.21-3.41,16.84-12.47,34.96-15.14l.64-19.71c-6.69,1.38-13.24,3.61-19.37,6.21h0ZM362.43,400.29c-5.9,3.93-10.68,5.69-13.24,6.43l-2.24,11.87c9.71-2.71,18.21-8.87,25.63-13.05l-10.15-5.25h0ZM229.94,364.42l-10.64.4c6.47,11.99,13.49,24.15,23.51,33.51l3.35-12.96c-6.73-5.47-13.67-16.63-16.22-20.95ZM268.9,217.4c-12.32,5.83-22.96,13.52-32.11,22.86l15.88,5.78c4.21-3.41,16.84-12.47,34.96-15.14l.64-19.71c-6.69,1.38-13.24,3.61-19.37,6.21h0ZM362.43,400.29c-5.9,3.93-10.68,5.69-13.24,6.43l-2.24,11.87c9.71-2.71,18.21-8.87,25.63-13.05l-10.15-5.25h0ZM229.94,364.42l-10.64.4c6.47,11.99,13.49,24.15,23.51,33.51l3.35-12.96c-6.73-5.47-13.67-16.63-16.22-20.95ZM268.9,217.4c-12.32,5.83-22.96,13.52-32.11,22.86l15.88,5.78c4.21-3.41,16.84-12.47,34.96-15.14l.64-19.71c-6.69,1.38-13.24,3.61-19.37,6.21h0ZM362.43,400.29c-5.9,3.93-10.68,5.69-13.24,6.43l-2.24,11.87c9.71-2.71,18.21-8.87,25.63-13.05l-10.15-5.25h0ZM229.94,364.42l-10.64.4c6.47,11.99,13.49,24.15,23.51,33.51l3.35-12.96c-6.73-5.47-13.67-16.63-16.22-20.95ZM268.9,217.4c-12.32,5.83-22.96,13.52-32.11,22.86l15.88,5.78c4.21-3.41,16.84-12.47,34.96-15.14l.64-19.71c-6.69,1.38-13.24,3.61-19.37,6.21h0ZM362.43,400.29c-5.9,3.93-10.68,5.69-13.24,6.43l-2.24,11.87c9.71-2.71,18.21-8.87,25.63-13.05l-10.15-5.25h0ZM229.94,364.42l-10.64.4c6.47,11.99,13.49,24.15,23.51,33.51l3.35-12.96c-6.73-5.47-13.67-16.63-16.22-20.95ZM268.9,217.4c-12.32,5.83-22.96,13.52-32.11,22.86l15.88,5.78c4.21-3.41,16.84-12.47,34.96-15.14l.64-19.71c-6.69,1.38-13.24,3.61-19.37,6.21h0ZM362.43,400.29c-5.9,3.93-10.68,5.69-13.24,6.43l-2.24,11.87c9.71-2.71,18.21-8.87,25.63-13.05l-10.15-5.25h0ZM229.94,364.42l-10.64.4c6.47,11.99,13.49,24.15,23.51,33.51l3.35-12.96c-6.73-5.47-13.67-16.63-16.22-20.95ZM268.9,217.4c-12.32,5.83-22.96,13.52-32.11,22.86l15.88,5.78c4.21-3.41,16.84-12.47,34.96-15.14l.64-19.71c-6.69,1.38-13.24,3.61-19.37,6.21h0ZM362.43,400.29c-5.9,3.93-10.68,5.69-13.24,6.43l-2.24,11.87c9.71-2.71,18.21-8.87,25.63-13.05l-10.15-5.25h0ZM229.94,364.42l-10.64.4c6.47,11.99,13.49,24.15,23.51,33.51l3.35-12.96c-6.73-5.47-13.67-16.63-16.22-20.95ZM268.9,217.4c-12.32,5.83-22.96,13.52-32.11,22.86l15.88,5.78c4.21-3.41,16.84-12.47,34.96-15.14l.64-19.71c-6.69,1.38-13.24,3.61-19.37,6.21h0ZM362.43,400.29c-5.9,3.93-10.68,5.69-13.24,6.43l-2.24,11.87c9.71-2.71,18.21-8.87,25.63-13.05l-10.15-5.25h0ZM229.94,364.42l-10.64.4c6.47,11.99,13.49,24.15,23.51,33.51l3.35-12.96c-6.73-5.47-13.67-16.63-16.22-20.95ZM268.9,217.4c-12.32,5.83-22.96,13.52-32.11,22.86l15.88,5.78c4.21-3.41,16.84-12.47,34.96-15.14l.64-19.71c-6.69,1.38-13.24,3.61-19.37,6.21h0ZM362.43,400.29c-5.9,3.93-10.68,5.69-13.24,6.43l-2.24,11.87c9.71-2.71,18.21-8.87,25.63-13.05l-10.15-5.25h0ZM229.94,364.42l-10.64.4c6.47,11.99,13.49,24.15,23.51,33.51l3.35-12.96c-6.73-5.47-13.67-16.63-16.22-20.95ZM268.9,217.4c-12.32,5.83-22.96,13.52-32.11,22.86l15.88,5.78c4.21-3.41,16.84-12.47,34.96-15.14l.64-19.71c-6.69,1.38-13.24,3.61-19.37,6.21h0ZM362.43,400.29c-5.9,3.93-10.68,5.69-13.24,6.43l-2.24,11.87c9.71-2.71,18.21-8.87,25.63-13.05l-10.15-5.25h0ZM229.94,364.42l-10.64.4c6.47,11.99,13.49,24.15,23.51,33.51l3.35-12.96c-6.73-5.47-13.67-16.63-16.22-20.95ZM268.9,217.4c-12.32,5.83-22.96,13.52-32.11,22.86l15.88,5.78c4.21-3.41,16.84-12.47,34.96-15.14l.64-19.71c-6.69,1.38-13.24,3.61-19.37,6.21h0ZM362.43,400.29c-5.9,3.93-10.68,5.69-13.24,6.43l-2.24,11.87c9.71-2.71,18.21-8.87,25.63-13.05l-10.15-5.25h0ZM268.9,217.4c-12.32,5.83-22.96,13.52-32.11,22.86l15.88,5.78c4.21-3.41,16.84-12.47,34.96-15.14l.64-19.71c-6.69,1.38-13.24,3.61-19.37,6.21h0ZM229.94,364.42l-10.64.4c6.47,11.99,13.49,24.15,23.51,33.51l3.35-12.96c-6.73-5.47-13.67-16.63-16.22-20.95ZM362.43,400.29c-5.9,3.93-10.68,5.69-13.24,6.43l-2.24,11.87c9.71-2.71,18.21-8.87,25.63-13.05l-10.15-5.25h0Z"/>
  <path class="cls-2" d="M160.18,579.59c-33.67,7.48-40.05-1.01-50.7-26.23C-83.65,95.95,239.15-4.05,360.48.12c27.68.95,25.71,1.14,25.71,1.14,0,0-9.92,31.63-14.12,45.4-.71,2.35-2.78,4.02-5.23,4.22-37.37,2.96-168.37-1.2-243.81,125.32-72.74,121.99-18.07,319,37.15,403.4h0Z"/>
  <path class="cls-2" d="M405.1,543.76c-49.35,6.23-39.25-15.83-39.25-51.95,0-5.93,0-24,.56-24.28.94-.47,13.93-4.02,13.93-4.02l37.46,79.13s-9.61.32-12.71,1.13h.01Z"/>
  <path class="cls-2" d="M425.66,557.23c-44.26,3.21-61.68,1.3-69.97-8.11-8.95-10.16-5.24-29.2-5.98-71.87-.04-2.39-.51-4.65-.51-4.65l11.76-3.58s-.33,3.86-.21,6.19c2.78,52.49-17.77,84.92,59.31,72.21l5.59,9.8h.01Z"/>
  <g class="cls-3">
    <path class="cls-1" d="M625.3,382.42l-.1.3c-9.52-2.54-31.08-10.85-27.82-12.61,9.68-5.21,20.67-12.87,30.11-20.28,1.28,4.25,3.51,15.67-2.19,32.59Z"/>
    <path class="cls-1" d="M631.46,383.01c6.85-21.41,2.15-34.56,1.03-37.19.79-.65,1.56-1.29,2.31-1.92,7.14-6.02,8.19,34.35-3.34,39.11Z"/>
  </g>
  <path class="cls-2" d="M637.76,334.82c-7.06,7.06-37.11,30.05-42.07,31.62,9.04-9.88,26.82-30.21,36.42-39.53.95-.93,6.7,6.85,5.65,7.91Z"/>
  <path class="cls-2" d="M126.23,254.61c12.43-109.2,123.29-171.65,232.85-170.9,4.91.03-12.43,45.58-15.81,55.72-.88,2.63-2.76,1.09-4.14.84-135.34-24-189.63,95.27-195.8,115.73-2.2,11.76-18.41,11.07-17.09-1.39h-.01Z"/>
  <path class="cls-2" d="M309.7,277.81c-24.81,0-44.99,20.18-44.99,44.98s20.18,44.99,44.99,44.99,44.98-20.18,44.98-44.99-20.18-44.98-44.98-44.98ZM314.73,356.2c-45.06,2.08-46.69-63.04-5.45-64.82,48.39-5.38,49.67,64.51,5.45,64.82ZM309.7,277.81c-24.81,0-44.99,20.18-44.99,44.98s20.18,44.99,44.99,44.99,44.98-20.18,44.98-44.99-20.18-44.98-44.98-44.98ZM314.73,356.2c-45.06,2.08-46.69-63.04-5.45-64.82,48.39-5.38,49.67,64.51,5.45,64.82ZM308.73,265.92c-78.27-.59-73.2,117.62,1.96,115.06,76.58,1.99,78.49-118.96-1.96-115.06ZM309.7,373.15c-27.77,0-50.36-22.59-50.36-50.36s22.59-50.35,50.36-50.35,50.35,22.59,50.35,50.35-22.59,50.36-50.35,50.36h0ZM309.7,277.81c-24.81,0-44.99,20.18-44.99,44.98s20.18,44.99,44.99,44.99,44.98-20.18,44.98-44.99-20.18-44.98-44.98-44.98ZM314.73,356.2c-45.06,2.08-46.69-63.04-5.45-64.82,48.39-5.38,49.67,64.51,5.45,64.82Z"/>
  <path class="cls-2" d="M301.9,417.44c15.28,1.62,5.72,24.37-6.64,21.28-18.07-4.52-5.08-23.72,6.64-21.28Z"/>
  <path class="cls-2" d="M217.91,308.18c.08,13.58-18.81,15.68-20.11,1.72-1.05-12.23,20.76-15.63,20.11-1.72Z"/>
  <path class="cls-2" d="M364.8,220.75c13.82-.44,14.63,19.43,1.62,20.15-12.64.71-13.94-19.74-1.62-20.15Z"/>
  <path class="cls-2" d="M314.19,297.14c41.73,2.15,29.24,58.82-4.41,54.33-32.2-2.07-33.65-57.56,4.41-54.33Z"/>
  <path class="cls-2" d="M161.81,454.53l8.53-9.96c1.61-1.88,4.32-2.39,6.5-1.23l91.88,48.83,5.27,30.12-40.47-9.42c-2.1-.49-4.06-1.47-5.72-2.86l-66-55.49h.01Z"/>
  <path class="cls-2" d="M275.5,529.07l5.27,23.72-67.6-10.87c-4.75-.76-9.12-3.05-12.45-6.53l-57.36-59.78,13.18-16.19,71.15,57.98,47.81,11.67h0Z"/>
  <path class="cls-2" d="M275.5,500.46l13.59,70.02c.66,3.43,3.32,6.12,6.74,6.82l36.15,7.49,3.01-17.32-59.48-67.01h0Z"/>
</svg>