<?xml version="1.0" encoding="UTF-8"?>
<svg id="Layer_1" data-name="Layer 1" xmlns="http://www.w3.org/2000/svg" viewBox="0 0 749.2 1165.08">
  <defs>
    <style>
      .cls-1, .cls-2 {
        fill: #fcb535;
      }

      .cls-3, .cls-2, .cls-4 {
        opacity: .1;
      }

      .cls-4 {
        fill: none;
      }
    </style>
  </defs>
  <path class="cls-2" d="M478.04,1163.24c28.68-117.9,34.39-182.49-65.33-258.7-38.21-31.83-84.14-57.58-131.16-73.79-60.93-9.82-125.37,10.06-173.98,47.55,7.85-69.58-6.34-73.91,69.76-63.46,68.47,8.38,137.74,10,205.96,18.67,107.16,14.77,74.89-13.38,137.15,74.54,56.71,73.42,109.83,179.39,163.35,255.19h-205.75Z"/>
  <path class="cls-2" d="M266,1163.24h-121.02c-45.85-50.25,5.53-170.87,69.59-164.81,65.66-.48,93.88,117.51,51.44,164.81h-.01Z"/>
  <path class="cls-2" d="M482.48,480c10.83-49.06,30.97-87.59,37.43-99.15l-95.32-23.28c-4.56,20.25-29.68,63.42-40.95,80.86-11.86,18.35,44.42,104.92,57.18,134.13,18.05,32.73,41.13,66.19,70.03,91.54-17.41-25.72-28.53-54.6-33.14-86.11-4.45-30.48-2.85-63.45,4.77-97.99ZM501.48,385.69c.48-1.42,2.14-1.75,3.56-1.58,2.04.24,3.87,1.36,3.25,3.84-.28,1.1-.73,2.82-2.39,2.78-2.39-.06-4.78-2.67-4.42-5.04h0ZM748.4,463.48c-12.78-26.09-27.24-46-45.41-68.81-28.8-36.14-17.15-76.87-12.1-118.31-.01-.24-.02-.48-.04-.74-11.15-2.07-30.57-1.22-61.73,12.83-60.07,27.08-94.06,78.91-100.72,89.84-.43.69-.74,1.22-.94,1.57l-.08.14-.2.34-.06.09s-.42.7-1.11,1.91c-5.1,8.93-26.44,48.24-37.64,98.99-7.45,33.82-9.03,66.05-4.68,95.8,5.43,37.09,20.14,70.43,43.74,99.1l1.59,1.93-.14.11c23.9,16.64,51.28,27.52,82.54,28.66h0c36.41.39,88.74-5.07,87.86-56.11-.41-24.09-4.78-32.6-26.6-47.31-6.44-3.39-.14-11.76,4.1-5.14,4.61,2.52,18.01,18.61,21.81,14.29,9.52-11.09,18.11-28.1,1.09-36.47-15.79-7.21-34.4,2.25-49.53-7.35-5.92-1.85-3.84-8.54,2.17-7.99,15.21,1.05,28.74-6.37,40.89-14.42,27.1-11.16-8.6-46.35,27.26-53.88,13.17-2.59,32.96-13.8,27.93-29.07h0ZM647.54,332.28c-1.45,1.36-6.11,6.77-6.11,6.77,0,0,13.83,43.19-12.86,49.13h-.01c-25.76-4.98-42.18-16.1-41.33-17.79,3.61-7.23,33.6-38.95,42.79-48.6,1.41-1.48,3.8-1.38,5.08.22l6.62,8.28s8.41-11.03,11.39-10.25c2.66,3.94-2.65,9.6-5.57,12.24h0ZM694.32,493.11c-11.89,13.95-36.51,21.95-34.62-5.42h.01c.93-10.01,2.46-44.52,20.81-36.87.76,1.63-.54,2.74-1.78,2.99-12.92,4.82-10.32,23.13-12.42,35.38-.42,2.48-.05,5.06,1.18,7.25,8.42,14.96,33.08-21.64,47.78-16.99-4.9,5.33-15.16,7.75-20.96,13.66ZM421.08,4.37c-3.65-.09-49.45,117.88-48.45,131.67,1.36,18.78,18.63,19.2,46.77,126.1,1,3.8,15.06,7.48,25.23,9.66,6.16,1.32,10.65,6.63,10.93,12.92l1.56,35.51c.2,4.47-1.77,8.75-5.29,11.5-7.04,5.52-21.07,14.04-25.4,20.07l96.64,23.61c6.91-11.45,41.43-64.45,103.57-92.47,25.27-11.39,46.37-16.07,62.7-13.92.31.04.61.08.91.13-6.57-53.36-63.2-259.48-269.17-264.78h0ZM523.55,364.07c-.28,1.1-.73,2.82-2.39,2.78-2.39-.06-4.78-2.67-4.42-5.04.48-1.42,2.14-1.75,3.56-1.58,2.04.24,3.87,1.36,3.25,3.84Z"/>
  <path class="cls-2" d="M469.48,627.51c-13.48-19.61-26.71-38.9-37.37-60.03h-.01l-2.26-4.51c-20.87-1.67-55.53,5.08-75.01-7.34-5.88-3.74-8.91-10.41-9.09-20.18-.8-43.63-.47-54.99-1.36-60.95-.56-3.76-29.37,11.19-80.45-7.64-202.43-83.56-80.39-371.41,120.86-284.06-1.44-15.46-18.04-34.77-19.45-44.78-1.38-9.87,34.38-103.05,34.38-103.05l-16.94-2.26-6.48,19.84c-1.52,4.66-5.76,7.9-10.67,8.15-19.81.99-71.61,4.74-107.2,17.87C77.4,145.34,74.73,329.72,125.54,487.92c7.22,16.07,44.91,111.74,65.94,111.57,36.26-.3,60.29,2.24,60.29,1.49,0-6.04-3.39-45.93-3.39-45.93l-36.25-6.4c-5.55-.98-10.66-3.68-14.61-7.71l-59.21-60.51c-2.1-2.15-2.33-5.49-.55-7.91,7.81-10.6,28.31-37.57,34.96-37.57,9.07,0,101.27,52.71,101.27,52.71,0,0,37.27,46.68,64.75,74.92,3.84,3.94,2.7,13.66,1.47,19.58-.32,1.55-.65,3.09-.85,4.66-.54,4.32-2.87,5.73-7.72,4.57-12.21-2.92-24.42-5.87-36.64-8.78-5.11-1.22-9.13-5.17-10.43-10.26-1.51-5.89-1.92-12.41-1.92-12.41l-27.86-4.52,5.65,69.27h-28.24l-17.88,76.89-3.88,16.71-14.82,63.7h0l-4.23,18.23-1.73,7.43,36.14,4.05s24.81-100.49,31-136.29c1.24-6.75,1.75-8.55,1.75-8.55l25.41,12.42-1.69-33.51,37.65-1.88s-3-11.93-2.56-15.93c-1.61-20.72,27.4-35.28,40.2-14.57,6.4,10.35,11.36,27.62,13.21,27.31,8.21-1.37,13.99-1.85,24.33-1.85,1.23,0-1.05-26,.92-33.87.31-1.23,16.59-.34,23.1.31,3.08.31-.15,37.42,3.7,38.19,12.66,1.14,35.22,1.98,44.11,3.9,2.58.56,3.2-18.92,2.55-19.87h0ZM131.38,270.14c-26.04-.83-1.95-59.56,10.1-80.64,42.7-74.74,135.22-113.51,218.98-110.72,2.34.08,4.27,1.94,4.39,4.28.53,10.67-15.47,58.14-20.54,62.99-3.87,3.71-111.16-35.81-184.58,86.56-10.16,16.94-7.96,39.49-28.35,37.53h0Z"/>
  <path class="cls-2" d="M362.43,400.29c-5.9,3.93-10.68,5.69-13.24,6.43l-2.24,11.87c9.71-2.71,18.21-8.87,25.63-13.05l-10.15-5.25h0ZM268.9,217.4c-12.32,5.83-22.96,13.52-32.11,22.86l15.88,5.78c4.21-3.41,16.84-12.47,34.96-15.14l.64-19.71c-6.69,1.38-13.24,3.61-19.37,6.21h0ZM229.94,364.42l-10.64.4c6.47,11.99,13.49,24.15,23.51,33.51l3.35-12.96c-6.73-5.47-13.67-16.63-16.22-20.95ZM362.43,400.29c-5.9,3.93-10.68,5.69-13.24,6.43l-2.24,11.87c9.71-2.71,18.21-8.87,25.63-13.05l-10.15-5.25h0ZM268.9,217.4c-12.32,5.83-22.96,13.52-32.11,22.86l15.88,5.78c4.21-3.41,16.84-12.47,34.96-15.14l.64-19.71c-6.69,1.38-13.24,3.61-19.37,6.21h0ZM229.94,364.42l-10.64.4c6.47,11.99,13.49,24.15,23.51,33.51l3.35-12.96c-6.73-5.47-13.67-16.63-16.22-20.95ZM362.43,400.29c-5.9,3.93-10.68,5.69-13.24,6.43l-2.24,11.87c9.71-2.71,18.21-8.87,25.63-13.05l-10.15-5.25h0ZM268.9,217.4c-12.32,5.83-22.96,13.52-32.11,22.86l15.88,5.78c4.21-3.41,16.84-12.47,34.96-15.14l.64-19.71c-6.69,1.38-13.24,3.61-19.37,6.21h0ZM229.94,364.42l-10.64.4c6.47,11.99,13.49,24.15,23.51,33.51l3.35-12.96c-6.73-5.47-13.67-16.63-16.22-20.95ZM362.43,400.29c-5.9,3.93-10.68,5.69-13.24,6.43l-2.24,11.87c9.71-2.71,18.21-8.87,25.63-13.05l-10.15-5.25h0ZM268.9,217.4c-12.32,5.83-22.96,13.52-32.11,22.86l15.88,5.78c4.21-3.41,16.84-12.47,34.96-15.14l.64-19.71c-6.69,1.38-13.24,3.61-19.37,6.21h0ZM229.94,364.42l-10.64.4c6.47,11.99,13.49,24.15,23.51,33.51l3.35-12.96c-6.73-5.47-13.67-16.63-16.22-20.95ZM362.43,400.29c-5.9,3.93-10.68,5.69-13.24,6.43l-2.24,11.87c9.71-2.71,18.21-8.87,25.63-13.05l-10.15-5.25h0ZM268.9,217.4c-12.32,5.83-22.96,13.52-32.11,22.86l15.88,5.78c4.21-3.41,16.84-12.47,34.96-15.14l.64-19.71c-6.69,1.38-13.24,3.61-19.37,6.21h0ZM229.94,364.42l-10.64.4c6.47,11.99,13.49,24.15,23.51,33.51l3.35-12.96c-6.73-5.47-13.67-16.63-16.22-20.95ZM362.43,400.29c-5.9,3.93-10.68,5.69-13.24,6.43l-2.24,11.87c9.71-2.71,18.21-8.87,25.63-13.05l-10.15-5.25h0ZM268.9,217.4c-12.32,5.83-22.96,13.52-32.11,22.86l15.88,5.78c4.21-3.41,16.84-12.47,34.96-15.14l.64-19.71c-6.69,1.38-13.24,3.61-19.37,6.21h0ZM229.94,364.42l-10.64.4c6.47,11.99,13.49,24.15,23.51,33.51l3.35-12.96c-6.73-5.47-13.67-16.63-16.22-20.95ZM362.43,400.29c-5.9,3.93-10.68,5.69-13.24,6.43l-2.24,11.87c9.71-2.71,18.21-8.87,25.63-13.05l-10.15-5.25h0ZM268.9,217.4c-12.32,5.83-22.96,13.52-32.11,22.86l15.88,5.78c4.21-3.41,16.84-12.47,34.96-15.14l.64-19.71c-6.69,1.38-13.24,3.61-19.37,6.21h0ZM229.94,364.42l-10.64.4c6.47,11.99,13.49,24.15,23.51,33.51l3.35-12.96c-6.73-5.47-13.67-16.63-16.22-20.95ZM362.43,400.29c-5.9,3.93-10.68,5.69-13.24,6.43l-2.24,11.87c9.71-2.71,18.21-8.87,25.63-13.05l-10.15-5.25h0ZM268.9,217.4c-12.32,5.83-22.96,13.52-32.11,22.86l15.88,5.78c4.21-3.41,16.84-12.47,34.96-15.14l.64-19.71c-6.69,1.38-13.24,3.61-19.37,6.21h0ZM229.94,364.42l-10.64.4c6.47,11.99,13.49,24.15,23.51,33.51l3.35-12.96c-6.73-5.47-13.67-16.63-16.22-20.95ZM362.43,400.29c-5.9,3.93-10.68,5.69-13.24,6.43l-2.24,11.87c9.71-2.71,18.21-8.87,25.63-13.05l-10.15-5.25h0ZM268.9,217.4c-12.32,5.83-22.96,13.52-32.11,22.86l15.88,5.78c4.21-3.41,16.84-12.47,34.96-15.14l.64-19.71c-6.69,1.38-13.24,3.61-19.37,6.21h0ZM229.94,364.42l-10.64.4c6.47,11.99,13.49,24.15,23.51,33.51l3.35-12.96c-6.73-5.47-13.67-16.63-16.22-20.95ZM362.43,400.29c-5.9,3.93-10.68,5.69-13.24,6.43l-2.24,11.87c9.71-2.71,18.21-8.87,25.63-13.05l-10.15-5.25h0ZM268.9,217.4c-12.32,5.83-22.96,13.52-32.11,22.86l15.88,5.78c4.21-3.41,16.84-12.47,34.96-15.14l.64-19.71c-6.69,1.38-13.24,3.61-19.37,6.21h0ZM229.94,364.42l-10.64.4c6.47,11.99,13.49,24.15,23.51,33.51l3.35-12.96c-6.73-5.47-13.67-16.63-16.22-20.95ZM362.43,400.29c-5.9,3.93-10.68,5.69-13.24,6.43l-2.24,11.87c9.71-2.71,18.21-8.87,25.63-13.05l-10.15-5.25h0ZM268.9,217.4c-12.32,5.83-22.96,13.52-32.11,22.86l15.88,5.78c4.21-3.41,16.84-12.47,34.96-15.14l.64-19.71c-6.69,1.38-13.24,3.61-19.37,6.21h0ZM229.94,364.42l-10.64.4c6.47,11.99,13.49,24.15,23.51,33.51l3.35-12.96c-6.73-5.47-13.67-16.63-16.22-20.95ZM362.43,400.29c-5.9,3.93-10.68,5.69-13.24,6.43l-2.24,11.87c9.71-2.71,18.21-8.87,25.63-13.05l-10.15-5.25h0ZM268.9,217.4c-12.32,5.83-22.96,13.52-32.11,22.86l15.88,5.78c4.21-3.41,16.84-12.47,34.96-15.14l.64-19.71c-6.69,1.38-13.24,3.61-19.37,6.21h0ZM229.94,364.42l-10.64.4c6.47,11.99,13.49,24.15,23.51,33.51l3.35-12.96c-6.73-5.47-13.67-16.63-16.22-20.95ZM362.43,400.29c-5.9,3.93-10.68,5.69-13.24,6.43l-2.24,11.87c9.71-2.71,18.21-8.87,25.63-13.05l-10.15-5.25h0ZM268.9,217.4c-12.32,5.83-22.96,13.52-32.11,22.86l15.88,5.78c4.21-3.41,16.84-12.47,34.96-15.14l.64-19.71c-6.69,1.38-13.24,3.61-19.37,6.21h0ZM229.94,364.42l-10.64.4c6.47,11.99,13.49,24.15,23.51,33.51l3.35-12.96c-6.73-5.47-13.67-16.63-16.22-20.95ZM362.43,400.29c-5.9,3.93-10.68,5.69-13.24,6.43l-2.24,11.87c9.71-2.71,18.21-8.87,25.63-13.05l-10.15-5.25h0ZM268.9,217.4c-12.32,5.83-22.96,13.52-32.11,22.86l15.88,5.78c4.21-3.41,16.84-12.47,34.96-15.14l.64-19.71c-6.69,1.38-13.24,3.61-19.37,6.21h0ZM229.94,364.42l-10.64.4c6.47,11.99,13.49,24.15,23.51,33.51l3.35-12.96c-6.73-5.47-13.67-16.63-16.22-20.95ZM362.43,400.29c-5.9,3.93-10.68,5.69-13.24,6.43l-2.24,11.87c9.71-2.71,18.21-8.87,25.63-13.05l-10.15-5.25h0ZM268.9,217.4c-12.32,5.83-22.96,13.52-32.11,22.86l15.88,5.78c4.21-3.41,16.84-12.47,34.96-15.14l.64-19.71c-6.69,1.38-13.24,3.61-19.37,6.21h0ZM229.94,364.42l-10.64.4c6.47,11.99,13.49,24.15,23.51,33.51l3.35-12.96c-6.73-5.47-13.67-16.63-16.22-20.95ZM376.62,446.01c-.07-1.04-.09-2.1-.04-3.18-19.72,10.47-41.98,16.01-64.46,16.01-75.86,0-137.57-61.72-137.57-137.58s61.71-137.57,137.57-137.57c31.18,0,61.56,10.65,85.85,30.07-.55-1.69-1.1-3.38-1.65-5.05-.19-.57-.37-1.13-.56-1.7-1.27-3.83-2.54-7.6-3.81-11.29-80.44-59.29-210.39-.89-225.33,98.47-21.25,112.6,94.76,210.88,211.37,163.44.91-.37-.74-4.91-1.27-10.5-.04-.37-.07-.74-.1-1.12ZM362.43,400.29c-5.9,3.93-10.68,5.69-13.24,6.43l-2.24,11.87c9.71-2.71,18.21-8.87,25.63-13.05l-10.15-5.25h0ZM229.94,364.42l-10.64.4c6.47,11.99,13.49,24.15,23.51,33.51l3.35-12.96c-6.73-5.47-13.67-16.63-16.22-20.95ZM268.9,217.4c-12.32,5.83-22.96,13.52-32.11,22.86l15.88,5.78c4.21-3.41,16.84-12.47,34.96-15.14l.64-19.71c-6.69,1.38-13.24,3.61-19.37,6.21h0ZM268.9,217.4c-12.32,5.83-22.96,13.52-32.11,22.86l15.88,5.78c4.21-3.41,16.84-12.47,34.96-15.14l.64-19.71c-6.69,1.38-13.24,3.61-19.37,6.21h0ZM362.43,400.29c-5.9,3.93-10.68,5.69-13.24,6.43l-2.24,11.87c9.71-2.71,18.21-8.87,25.63-13.05l-10.15-5.25h0ZM229.94,364.42l-10.64.4c6.47,11.99,13.49,24.15,23.51,33.51l3.35-12.96c-6.73-5.47-13.67-16.63-16.22-20.95ZM268.9,217.4c-12.32,5.83-22.96,13.52-32.11,22.86l15.88,5.78c4.21-3.41,16.84-12.47,34.96-15.14l.64-19.71c-6.69,1.38-13.24,3.61-19.37,6.21h0ZM229.94,364.42l-10.64.4c6.47,11.99,13.49,24.15,23.51,33.51l3.35-12.96c-6.73-5.47-13.67-16.63-16.22-20.95ZM268.9,217.4c-12.32,5.83-22.96,13.52-32.11,22.86l15.88,5.78c4.21-3.41,16.84-12.47,34.96-15.14l.64-19.71c-6.69,1.38-13.24,3.61-19.37,6.21h0ZM362.43,400.29c-5.9,3.93-10.68,5.69-13.24,6.43l-2.24,11.87c9.71-2.71,18.21-8.87,25.63-13.05l-10.15-5.25h0ZM229.94,364.42l-10.64.4c6.47,11.99,13.49,24.15,23.51,33.51l3.35-12.96c-6.73-5.47-13.67-16.63-16.22-20.95ZM268.9,217.4c-12.32,5.83-22.96,13.52-32.11,22.86l15.88,5.78c4.21-3.41,16.84-12.47,34.96-15.14l.64-19.71c-6.69,1.38-13.24,3.61-19.37,6.21h0ZM229.94,364.42l-10.64.4c6.47,11.99,13.49,24.15,23.51,33.51l3.35-12.96c-6.73-5.47-13.67-16.63-16.22-20.95ZM268.9,217.4c-12.32,5.83-22.96,13.52-32.11,22.86l15.88,5.78c4.21-3.41,16.84-12.47,34.96-15.14l.64-19.71c-6.69,1.38-13.24,3.61-19.37,6.21h0ZM362.43,400.29c-5.9,3.93-10.68,5.69-13.24,6.43l-2.24,11.87c9.71-2.71,18.21-8.87,25.63-13.05l-10.15-5.25h0ZM362.43,400.29c-5.9,3.93-10.68,5.69-13.24,6.43l-2.24,11.87c9.71-2.71,18.21-8.87,25.63-13.05l-10.15-5.25h0ZM229.94,364.42l-10.64.4c6.47,11.99,13.49,24.15,23.51,33.51l3.35-12.96c-6.73-5.47-13.67-16.63-16.22-20.95ZM268.9,217.4c-12.32,5.83-22.96,13.52-32.11,22.86l15.88,5.78c4.21-3.41,16.84-12.47,34.96-15.14l.64-19.71c-6.69,1.38-13.24,3.61-19.37,6.21h0ZM229.94,364.42l-10.64.4c6.47,11.99,13.49,24.15,23.51,33.51l3.35-12.96c-6.73-5.47-13.67-16.63-16.22-20.95ZM268.9,217.4c-12.32,5.83-22.96,13.52-32.11,22.86l15.88,5.78c4.21-3.41,16.84-12.47,34.96-15.14l.64-19.71c-6.69,1.38-13.24,3.61-19.37,6.21h0ZM362.43,400.29c-5.9,3.93-10.68,5.69-13.24,6.43l-2.24,11.87c9.71-2.71,18.21-8.87,25.63-13.05l-10.15-5.25h0ZM362.43,400.29c-5.9,3.93-10.68,5.69-13.24,6.43l-2.24,11.87c9.71-2.71,18.21-8.87,25.63-13.05l-10.15-5.25h0ZM229.94,364.42l-10.64.4c6.47,11.99,13.49,24.15,23.51,33.51l3.35-12.96c-6.73-5.47-13.67-16.63-16.22-20.95ZM268.9,217.4c-12.32,5.83-22.96,13.52-32.11,22.86l15.88,5.78c4.21-3.41,16.84-12.47,34.96-15.14l.64-19.71c-6.69,1.38-13.24,3.61-19.37,6.21h0ZM229.94,364.42l-10.64.4c6.47,11.99,13.49,24.15,23.51,33.51l3.35-12.96c-6.73-5.47-13.67-16.63-16.22-20.95ZM268.9,217.4c-12.32,5.83-22.96,13.52-32.11,22.86l15.88,5.78c4.21-3.41,16.84-12.47,34.96-15.14l.64-19.71c-6.69,1.38-13.24,3.61-19.37,6.21h0ZM362.43,400.29c-5.9,3.93-10.68,5.69-13.24,6.43l-2.24,11.87c9.71-2.71,18.21-8.87,25.63-13.05l-10.15-5.25h0ZM362.43,400.29c-5.9,3.93-10.68,5.69-13.24,6.43l-2.24,11.87c9.71-2.71,18.21-8.87,25.63-13.05l-10.15-5.25h0ZM229.94,364.42l-10.64.4c6.47,11.99,13.49,24.15,23.51,33.51l3.35-12.96c-6.73-5.47-13.67-16.63-16.22-20.95ZM268.9,217.4c-12.32,5.83-22.96,13.52-32.11,22.86l15.88,5.78c4.21-3.41,16.84-12.47,34.96-15.14l.64-19.71c-6.69,1.38-13.24,3.61-19.37,6.21h0ZM229.94,364.42l-10.64.4c6.47,11.99,13.49,24.15,23.51,33.51l3.35-12.96c-6.73-5.47-13.67-16.63-16.22-20.95ZM268.9,217.4c-12.32,5.83-22.96,13.52-32.11,22.86l15.88,5.78c4.21-3.41,16.84-12.47,34.96-15.14l.64-19.71c-6.69,1.38-13.24,3.61-19.37,6.21h0ZM362.43,400.29c-5.9,3.93-10.68,5.69-13.24,6.43l-2.24,11.87c9.71-2.71,18.21-8.87,25.63-13.05l-10.15-5.25h0ZM362.43,400.29c-5.9,3.93-10.68,5.69-13.24,6.43l-2.24,11.87c9.71-2.71,18.21-8.87,25.63-13.05l-10.15-5.25h0ZM229.94,364.42l-10.64.4c6.47,11.99,13.49,24.15,23.51,33.51l3.35-12.96c-6.73-5.47-13.67-16.63-16.22-20.95ZM268.9,217.4c-12.32,5.83-22.96,13.52-32.11,22.86l15.88,5.78c4.21-3.41,16.84-12.47,34.96-15.14l.64-19.71c-6.69,1.38-13.24,3.61-19.37,6.21h0ZM447.92,281.73s-32.38-9.04-33.51-13.18c-4.3-15.78-9.37-32.76-14.63-49.2l-1.67,2.01-1.84-1.53c-23.58-19.57-53.46-30.35-84.15-30.35-72.66,0-131.78,59.12-131.78,131.78s59.12,131.79,131.78,131.79c21.95,0,43.67-5.5,62.83-15.91l2.11-1.15.54,1c.49-1.44,1.19-2.83,2.15-4.13,36.93-49.86,39.94-85.25,39.94-85.25l29.74-22.21-1.51-43.67h0ZM366,215.71c21.69-.59,19.56,31.42,0,31.06-21.44.54-21.63-31.55,0-31.06ZM216.16,260.95c10.22-33.51,54.98-57.62,90.07-58.17,6.28-1.32,18.82,6.08,6.52,7.8-6.13-1.19-12.43-1.2-18.66-.39l-.83,25.87-2.49.27c-21.34,2.37-35.41,15.01-35.55,15.14l-1.29,1.19-21.41-7.78c-4.73,5.36-9.01,11.21-12.9,17.49,0,.02-.03.03-.03.05-1.16,1.94-4.09.68-3.43-1.47h0ZM209.25,293.28c23.06-.04,16.48,33.89-3.2,33.18-23.15-.22-17.29-32.92,3.2-33.18ZM256.38,412.56c-15.16.11-46.08-39.82-47.98-57.79-.29-2.71,3.41-3.82,4.72-1.44,1.05,1.91,2.1,3.86,3.15,5.82l16.97-.65.86,1.55c3.29,5.8,11.07,17.82,16.96,21.75l1.71,1.14-5.05,19.55c.67.52,1.36,1.03,2.06,1.52,2.88,1.32,7.38,2.92,8.33,6.28.32,1.13-.56,2.27-1.73,2.27h0ZM295.96,443.76c-.35.04-.7.06-1.04.08-16.41.83-20.61-22.54-5.09-27.94,4.49-1.57,9.15-3.15,13.91-3.48,24.91,3.06,9.5,31.57-7.78,31.34h0ZM309,260.21c78.25-2.95,90.04,108.99,15.02,124.67-91.53,18.09-107.96-124.54-15.02-124.67h0ZM383.5,405.15c-11.22,9.39-47.4,27.05-46.07,18.06.25-1.75,1.69-3.05,3.4-3.39l3.38-18,2-.33s6.17-1.15,14.34-6.93l1.43-1.02,17.13,8.85c.9-.33,1.77-.59,2.63-.78h0c2.06-.44,3.38,2.18,1.76,3.54h0ZM429.28,304.94c-3.15,17.45-12.41-8.27-5.15-9.89,4.95-.62,6.1,3.62,5.15,9.89ZM438.38,321.87c-1.86-11.95-3.24-41.37,3.6-36.34.99.73,1.51,1.94,1.52,3.18.1,11.03.85,22.36.85,33.38,0,5.11-5.36,3.7-5.97-.22ZM349.19,406.72l-2.24,11.87c9.71-2.71,18.21-8.87,25.63-13.05l-10.15-5.25c-5.9,3.93-10.68,5.69-13.24,6.43h0ZM287.63,230.9l.64-19.71c-6.69,1.38-13.24,3.61-19.37,6.21-12.32,5.83-22.96,13.52-32.11,22.86l15.88,5.78c4.21-3.41,16.84-12.47,34.96-15.14h0ZM229.94,364.42l-10.64.4c6.47,11.99,13.49,24.15,23.51,33.51l3.35-12.96c-6.73-5.47-13.67-16.63-16.22-20.95ZM268.9,217.4c-12.32,5.83-22.96,13.52-32.11,22.86l15.88,5.78c4.21-3.41,16.84-12.47,34.96-15.14l.64-19.71c-6.69,1.38-13.24,3.61-19.37,6.21h0ZM229.94,364.42l-10.64.4c6.47,11.99,13.49,24.15,23.51,33.51l3.35-12.96c-6.73-5.47-13.67-16.63-16.22-20.95ZM362.43,400.29c-5.9,3.93-10.68,5.69-13.24,6.43l-2.24,11.87c9.71-2.71,18.21-8.87,25.63-13.05l-10.15-5.25h0ZM362.43,400.29c-5.9,3.93-10.68,5.69-13.24,6.43l-2.24,11.87c9.71-2.71,18.21-8.87,25.63-13.05l-10.15-5.25h0ZM268.9,217.4c-12.32,5.83-22.96,13.52-32.11,22.86l15.88,5.78c4.21-3.41,16.84-12.47,34.96-15.14l.64-19.71c-6.69,1.38-13.24,3.61-19.37,6.21h0ZM229.94,364.42l-10.64.4c6.47,11.99,13.49,24.15,23.51,33.51l3.35-12.96c-6.73-5.47-13.67-16.63-16.22-20.95ZM268.9,217.4c-12.32,5.83-22.96,13.52-32.11,22.86l15.88,5.78c4.21-3.41,16.84-12.47,34.96-15.14l.64-19.71c-6.69,1.38-13.24,3.61-19.37,6.21h0ZM229.94,364.42l-10.64.4c6.47,11.99,13.49,24.15,23.51,33.51l3.35-12.96c-6.73-5.47-13.67-16.63-16.22-20.95ZM362.43,400.29c-5.9,3.93-10.68,5.69-13.24,6.43l-2.24,11.87c9.71-2.71,18.21-8.87,25.63-13.05l-10.15-5.25h0ZM362.43,400.29c-5.9,3.93-10.68,5.69-13.24,6.43l-2.24,11.87c9.71-2.71,18.21-8.87,25.63-13.05l-10.15-5.25h0ZM268.9,217.4c-12.32,5.83-22.96,13.52-32.11,22.86l15.88,5.78c4.21-3.41,16.84-12.47,34.96-15.14l.64-19.71c-6.69,1.38-13.24,3.61-19.37,6.21h0ZM229.94,364.42l-10.64.4c6.47,11.99,13.49,24.15,23.51,33.51l3.35-12.96c-6.73-5.47-13.67-16.63-16.22-20.95ZM268.9,217.4c-12.32,5.83-22.96,13.52-32.11,22.86l15.88,5.78c4.21-3.41,16.84-12.47,34.96-15.14l.64-19.71c-6.69,1.38-13.24,3.61-19.37,6.21h0ZM229.94,364.42l-10.64.4c6.47,11.99,13.49,24.15,23.51,33.51l3.35-12.96c-6.73-5.47-13.67-16.63-16.22-20.95ZM362.43,400.29c-5.9,3.93-10.68,5.69-13.24,6.43l-2.24,11.87c9.71-2.71,18.21-8.87,25.63-13.05l-10.15-5.25h0ZM362.43,400.29c-5.9,3.93-10.68,5.69-13.24,6.43l-2.24,11.87c9.71-2.71,18.21-8.87,25.63-13.05l-10.15-5.25h0ZM268.9,217.4c-12.32,5.83-22.96,13.52-32.11,22.86l15.88,5.78c4.21-3.41,16.84-12.47,34.96-15.14l.64-19.71c-6.69,1.38-13.24,3.61-19.37,6.21h0ZM229.94,364.42l-10.64.4c6.47,11.99,13.49,24.15,23.51,33.51l3.35-12.96c-6.73-5.47-13.67-16.63-16.22-20.95ZM268.9,217.4c-12.32,5.83-22.96,13.52-32.11,22.86l15.88,5.78c4.21-3.41,16.84-12.47,34.96-15.14l.64-19.71c-6.69,1.38-13.24,3.61-19.37,6.21h0ZM229.94,364.42l-10.64.4c6.47,11.99,13.49,24.15,23.51,33.51l3.35-12.96c-6.73-5.47-13.67-16.63-16.22-20.95ZM362.43,400.29c-5.9,3.93-10.68,5.69-13.24,6.43l-2.24,11.87c9.71-2.71,18.21-8.87,25.63-13.05l-10.15-5.25h0ZM362.43,400.29c-5.9,3.93-10.68,5.69-13.24,6.43l-2.24,11.87c9.71-2.71,18.21-8.87,25.63-13.05l-10.15-5.25h0ZM268.9,217.4c-12.32,5.83-22.96,13.52-32.11,22.86l15.88,5.78c4.21-3.41,16.84-12.47,34.96-15.14l.64-19.71c-6.69,1.38-13.24,3.61-19.37,6.21h0ZM229.94,364.42l-10.64.4c6.47,11.99,13.49,24.15,23.51,33.51l3.35-12.96c-6.73-5.47-13.67-16.63-16.22-20.95ZM268.9,217.4c-12.32,5.83-22.96,13.52-32.11,22.86l15.88,5.78c4.21-3.41,16.84-12.47,34.96-15.14l.64-19.71c-6.69,1.38-13.24,3.61-19.37,6.21h0ZM229.94,364.42l-10.64.4c6.47,11.99,13.49,24.15,23.51,33.51l3.35-12.96c-6.73-5.47-13.67-16.63-16.22-20.95ZM362.43,400.29c-5.9,3.93-10.68,5.69-13.24,6.43l-2.24,11.87c9.71-2.71,18.21-8.87,25.63-13.05l-10.15-5.25h0ZM268.9,217.4c-12.32,5.83-22.96,13.52-32.11,22.86l15.88,5.78c4.21-3.41,16.84-12.47,34.96-15.14l.64-19.71c-6.69,1.38-13.24,3.61-19.37,6.21h0ZM229.94,364.42l-10.64.4c6.47,11.99,13.49,24.15,23.51,33.51l3.35-12.96c-6.73-5.47-13.67-16.63-16.22-20.95ZM268.9,217.4c-12.32,5.83-22.96,13.52-32.11,22.86l15.88,5.78c4.21-3.41,16.84-12.47,34.96-15.14l.64-19.71c-6.69,1.38-13.24,3.61-19.37,6.21h0ZM229.94,364.42l-10.64.4c6.47,11.99,13.49,24.15,23.51,33.51l3.35-12.96c-6.73-5.47-13.67-16.63-16.22-20.95ZM362.43,400.29c-5.9,3.93-10.68,5.69-13.24,6.43l-2.24,11.87c9.71-2.71,18.21-8.87,25.63-13.05l-10.15-5.25h0ZM268.9,217.4c-12.32,5.83-22.96,13.52-32.11,22.86l15.88,5.78c4.21-3.41,16.84-12.47,34.96-15.14l.64-19.71c-6.69,1.38-13.24,3.61-19.37,6.21h0ZM229.94,364.42l-10.64.4c6.47,11.99,13.49,24.15,23.51,33.51l3.35-12.96c-6.73-5.47-13.67-16.63-16.22-20.95ZM268.9,217.4c-12.32,5.83-22.96,13.52-32.11,22.86l15.88,5.78c4.21-3.41,16.84-12.47,34.96-15.14l.64-19.71c-6.69,1.38-13.24,3.61-19.37,6.21h0ZM362.43,400.29c-5.9,3.93-10.68,5.69-13.24,6.43l-2.24,11.87c9.71-2.71,18.21-8.87,25.63-13.05l-10.15-5.25h0ZM229.94,364.42l-10.64.4c6.47,11.99,13.49,24.15,23.51,33.51l3.35-12.96c-6.73-5.47-13.67-16.63-16.22-20.95ZM268.9,217.4c-12.32,5.83-22.96,13.52-32.11,22.86l15.88,5.78c4.21-3.41,16.84-12.47,34.96-15.14l.64-19.71c-6.69,1.38-13.24,3.61-19.37,6.21h0ZM362.43,400.29c-5.9,3.93-10.68,5.69-13.24,6.43l-2.24,11.87c9.71-2.71,18.21-8.87,25.63-13.05l-10.15-5.25h0ZM229.94,364.42l-10.64.4c6.47,11.99,13.49,24.15,23.51,33.51l3.35-12.96c-6.73-5.47-13.67-16.63-16.22-20.95ZM268.9,217.4c-12.32,5.83-22.96,13.52-32.11,22.86l15.88,5.78c4.21-3.41,16.84-12.47,34.96-15.14l.64-19.71c-6.69,1.38-13.24,3.61-19.37,6.21h0ZM362.43,400.29c-5.9,3.93-10.68,5.69-13.24,6.43l-2.24,11.87c9.71-2.71,18.21-8.87,25.63-13.05l-10.15-5.25h0ZM229.94,364.42l-10.64.4c6.47,11.99,13.49,24.15,23.51,33.51l3.35-12.96c-6.73-5.47-13.67-16.63-16.22-20.95ZM268.9,217.4c-12.32,5.83-22.96,13.52-32.11,22.86l15.88,5.78c4.21-3.41,16.84-12.47,34.96-15.14l.64-19.71c-6.69,1.38-13.24,3.61-19.37,6.21h0ZM362.43,400.29c-5.9,3.93-10.68,5.69-13.24,6.43l-2.24,11.87c9.71-2.71,18.21-8.87,25.63-13.05l-10.15-5.25h0ZM229.94,364.42l-10.64.4c6.47,11.99,13.49,24.15,23.51,33.51l3.35-12.96c-6.73-5.47-13.67-16.63-16.22-20.95ZM268.9,217.4c-12.32,5.83-22.96,13.52-32.11,22.86l15.88,5.78c4.21-3.41,16.84-12.47,34.96-15.14l.64-19.71c-6.69,1.38-13.24,3.61-19.37,6.21h0ZM362.43,400.29c-5.9,3.93-10.68,5.69-13.24,6.43l-2.24,11.87c9.71-2.71,18.21-8.87,25.63-13.05l-10.15-5.25h0ZM229.94,364.42l-10.64.4c6.47,11.99,13.49,24.15,23.51,33.51l3.35-12.96c-6.73-5.47-13.67-16.63-16.22-20.95ZM268.9,217.4c-12.32,5.83-22.96,13.52-32.11,22.86l15.88,5.78c4.21-3.41,16.84-12.47,34.96-15.14l.64-19.71c-6.69,1.38-13.24,3.61-19.37,6.21h0ZM362.43,400.29c-5.9,3.93-10.68,5.69-13.24,6.43l-2.24,11.87c9.71-2.71,18.21-8.87,25.63-13.05l-10.15-5.25h0ZM229.94,364.42l-10.64.4c6.47,11.99,13.49,24.15,23.51,33.51l3.35-12.96c-6.73-5.47-13.67-16.63-16.22-20.95ZM268.9,217.4c-12.32,5.83-22.96,13.52-32.11,22.86l15.88,5.78c4.21-3.41,16.84-12.47,34.96-15.14l.64-19.71c-6.69,1.38-13.24,3.61-19.37,6.21h0ZM362.43,400.29c-5.9,3.93-10.68,5.69-13.24,6.43l-2.24,11.87c9.71-2.71,18.21-8.87,25.63-13.05l-10.15-5.25h0ZM229.94,364.42l-10.64.4c6.47,11.99,13.49,24.15,23.51,33.51l3.35-12.96c-6.73-5.47-13.67-16.63-16.22-20.95ZM268.9,217.4c-12.32,5.83-22.96,13.52-32.11,22.86l15.88,5.78c4.21-3.41,16.84-12.47,34.96-15.14l.64-19.71c-6.69,1.38-13.24,3.61-19.37,6.21h0ZM362.43,400.29c-5.9,3.93-10.68,5.69-13.24,6.43l-2.24,11.87c9.71-2.71,18.21-8.87,25.63-13.05l-10.15-5.25h0ZM229.94,364.42l-10.64.4c6.47,11.99,13.49,24.15,23.51,33.51l3.35-12.96c-6.73-5.47-13.67-16.63-16.22-20.95ZM268.9,217.4c-12.32,5.83-22.96,13.52-32.11,22.86l15.88,5.78c4.21-3.41,16.84-12.47,34.96-15.14l.64-19.71c-6.69,1.38-13.24,3.61-19.37,6.21h0ZM362.43,400.29c-5.9,3.93-10.68,5.69-13.24,6.43l-2.24,11.87c9.71-2.71,18.21-8.87,25.63-13.05l-10.15-5.25h0ZM229.94,364.42l-10.64.4c6.47,11.99,13.49,24.15,23.51,33.51l3.35-12.96c-6.73-5.47-13.67-16.63-16.22-20.95ZM268.9,217.4c-12.32,5.83-22.96,13.52-32.11,22.86l15.88,5.78c4.21-3.41,16.84-12.47,34.96-15.14l.64-19.71c-6.69,1.38-13.24,3.61-19.37,6.21h0ZM362.43,400.29c-5.9,3.93-10.68,5.69-13.24,6.43l-2.24,11.87c9.71-2.71,18.21-8.87,25.63-13.05l-10.15-5.25h0ZM229.94,364.42l-10.64.4c6.47,11.99,13.49,24.15,23.51,33.51l3.35-12.96c-6.73-5.47-13.67-16.63-16.22-20.95ZM268.9,217.4c-12.32,5.83-22.96,13.52-32.11,22.86l15.88,5.78c4.21-3.41,16.84-12.47,34.96-15.14l.64-19.71c-6.69,1.38-13.24,3.61-19.37,6.21h0ZM362.43,400.29c-5.9,3.93-10.68,5.69-13.24,6.43l-2.24,11.87c9.71-2.71,18.21-8.87,25.63-13.05l-10.15-5.25h0ZM229.94,364.42l-10.64.4c6.47,11.99,13.49,24.15,23.51,33.51l3.35-12.96c-6.73-5.47-13.67-16.63-16.22-20.95ZM268.9,217.4c-12.32,5.83-22.96,13.52-32.11,22.86l15.88,5.78c4.21-3.41,16.84-12.47,34.96-15.14l.64-19.71c-6.69,1.38-13.24,3.61-19.37,6.21h0ZM362.43,400.29c-5.9,3.93-10.68,5.69-13.24,6.43l-2.24,11.87c9.71-2.71,18.21-8.87,25.63-13.05l-10.15-5.25h0ZM229.94,364.42l-10.64.4c6.47,11.99,13.49,24.15,23.51,33.51l3.35-12.96c-6.73-5.47-13.67-16.63-16.22-20.95ZM268.9,217.4c-12.32,5.83-22.96,13.52-32.11,22.86l15.88,5.78c4.21-3.41,16.84-12.47,34.96-15.14l.64-19.71c-6.69,1.38-13.24,3.61-19.37,6.21h0ZM362.43,400.29c-5.9,3.93-10.68,5.69-13.24,6.43l-2.24,11.87c9.71-2.71,18.21-8.87,25.63-13.05l-10.15-5.25h0ZM229.94,364.42l-10.64.4c6.47,11.99,13.49,24.15,23.51,33.51l3.35-12.96c-6.73-5.47-13.67-16.63-16.22-20.95ZM268.9,217.4c-12.32,5.83-22.96,13.52-32.11,22.86l15.88,5.78c4.21-3.41,16.84-12.47,34.96-15.14l.64-19.71c-6.69,1.38-13.24,3.61-19.37,6.21h0ZM362.43,400.29c-5.9,3.93-10.68,5.69-13.24,6.43l-2.24,11.87c9.71-2.71,18.21-8.87,25.63-13.05l-10.15-5.25h0ZM229.94,364.42l-10.64.4c6.47,11.99,13.49,24.15,23.51,33.51l3.35-12.96c-6.73-5.47-13.67-16.63-16.22-20.95ZM268.9,217.4c-12.32,5.83-22.96,13.52-32.11,22.86l15.88,5.78c4.21-3.41,16.84-12.47,34.96-15.14l.64-19.71c-6.69,1.38-13.24,3.61-19.37,6.21h0ZM362.43,400.29c-5.9,3.93-10.68,5.69-13.24,6.43l-2.24,11.87c9.71-2.71,18.21-8.87,25.63-13.05l-10.15-5.25h0ZM268.9,217.4c-12.32,5.83-22.96,13.52-32.11,22.86l15.88,5.78c4.21-3.41,16.84-12.47,34.96-15.14l.64-19.71c-6.69,1.38-13.24,3.61-19.37,6.21h0ZM229.94,364.42l-10.64.4c6.47,11.99,13.49,24.15,23.51,33.51l3.35-12.96c-6.73-5.47-13.67-16.63-16.22-20.95ZM362.43,400.29c-5.9,3.93-10.68,5.69-13.24,6.43l-2.24,11.87c9.71-2.71,18.21-8.87,25.63-13.05l-10.15-5.25h0Z"/>
  <path class="cls-2" d="M160.18,579.59c-33.67,7.48-40.05-1.01-50.7-26.23C-83.65,95.95,239.15-4.05,360.48.12c27.68.95,25.71,1.14,25.71,1.14,0,0-9.92,31.63-14.12,45.4-.71,2.35-2.78,4.02-5.23,4.22-37.37,2.96-168.37-1.2-243.81,125.32-72.74,121.99-18.07,319,37.15,403.4h0Z"/>
  <g class="cls-3">
    <path class="cls-1" d="M355.28,621.03c-14.91,1.32-26.8,7.42-32.18,10.66-1.18-17.74,10.63-28.59,26.94-17.9,1.84,2.05,3.59,4.49,5.24,7.24h0Z"/>
    <path class="cls-1" d="M362.88,637.45c-16.91.99-30.27,8.35-35.19,11.44-.32-.82-.64-1.64-.98-2.45-1.98-4.77-3.11-9.37-3.51-13.61,5.1-3.12,17.3-9.57,32.66-10.8,2.57,4.46,4.9,9.69,7.02,15.42h0Z"/>
    <path class="cls-1" d="M368.35,655.03c-16.94.62-30.45,7.67-35.3,10.55-1.39-5.32-3.02-10.57-4.97-15.7,4.7-2.98,18.13-10.5,35.17-11.41,1.87,5.19,3.57,10.78,5.1,16.56Z"/>
    <path class="cls-1" d="M336.58,681.8c-.91-5.1-1.98-10.16-3.25-15.17,4.54-2.74,18.15-10,35.29-10.57,1.63,6.25,3.07,12.71,4.33,19.14-16.72-1.28-30.86,4.11-36.37,6.6Z"/>
    <path class="cls-1" d="M339.26,699.01c-.73-5.39-1.53-10.79-2.49-16.16,5.24-2.4,19.49-7.96,36.38-6.59,1.24,6.43,2.3,12.81,3.2,18.9-17.06-2.65-31.91,1.94-37.09,3.85h0Z"/>
    <path class="cls-1" d="M339.67,702.11l-.27-2.04c4.89-1.83,19.88-6.59,37.1-3.83.96,6.57,1.72,12.77,2.3,18.3-16.69-2.88-31.44,1.29-37.36,3.37-.49-5.15-1.07-10.42-1.77-15.79h0Z"/>
    <path class="cls-1" d="M342.76,735.77c-.29-5.42-.69-11.03-1.23-16.78,5.66-2.03,20.54-6.36,37.38-3.37.36,3.52.65,6.76.87,9.61.25,3.21.45,6.38.6,9.48-17.93-4.2-33.91-.05-37.62,1.06h0Z"/>
    <path class="cls-1" d="M374.77,814.85c-1.37,6.68-2.43,10.33-2.43,10.33,0,0-14.5-1.88-33.22-3.2,0,0,.79-4.31,1.69-12.1,6.36-.53,19.94-.71,33.96,4.97Z"/>
    <path class="cls-1" d="M378.02,795.27c-.98,7.47-2.08,13.72-3.04,18.54-13.99-5.62-27.52-5.5-34.05-4.98.51-4.53,1.05-10.15,1.5-16.71,5.4-.83,20.07-2.29,35.59,3.15Z"/>
    <path class="cls-1" d="M380.01,775.09c-.47,7-1.13,13.41-1.86,19.12-15.42-5.34-29.98-4-35.64-3.14.32-4.92.59-10.36.76-16.24,4.02-1.02,19.58-4.35,36.74.26Z"/>
    <path class="cls-1" d="M380.78,755.73c-.08,6.47-.33,12.58-.7,18.31-16.91-4.49-32.24-1.4-36.77-.28.15-5.78.21-11.97.12-18.53,4.33-1.09,20.1-4.36,37.35.5h0Z"/>
    <path class="cls-1" d="M380.79,754.65c-17.07-4.72-32.66-1.64-37.38-.49-.08-5.53-.27-11.32-.59-17.32,3.1-.95,19.36-5.41,37.61-1.05.3,6.56.41,12.86.36,18.86h0Z"/>
  </g>
  <path class="cls-2" d="M458.47,677.03c4.37.82-16.02,87.97-18.64,98.26-8.7,34.18-3.72,56.53-6.21,56.47-10.88-.27-50.64-3.95-50.26-5.46,10.53-42.12,22.78-103.34,22.78-103.34l17.04-.75s-1.13-47.72,0-49.69c0,0,18.01,1.26,35.29,4.52h0Z"/>
  <path class="cls-2" d="M405.1,543.76c-49.35,6.23-39.25-15.83-39.25-51.95,0-5.93,0-24,.56-24.28.94-.47,13.93-4.02,13.93-4.02l37.46,79.13s-9.61.32-12.71,1.13h.01Z"/>
  <path class="cls-2" d="M425.66,557.23c-44.26,3.21-61.68,1.3-69.97-8.11-8.95-10.16-5.24-29.2-5.98-71.87-.04-2.39-.51-4.65-.51-4.65l11.76-3.58s-.33,3.86-.21,6.19c2.78,52.49-17.77,84.92,59.31,72.21l5.59,9.8h.01Z"/>
  <path class="cls-2" d="M514.37,675.33c-28.76-3.09-91.76-7.91-91.76-7.91l-.09-19.02,61.06,4.13s8.05,7.71,30.8,22.79h-.01Z"/>
  <path class="cls-2" d="M380.54,816.7c7.72-39.15,5.27-92.61,5.27-92.61l14.68-.38s-11.67,71.53-19.95,92.99h0Z"/>
  <path class="cls-2" d="M414.2,638.25s-4.3.94-12.2.38c-1.57-.11-1.96-20.09-1.35-27.17.19-2.23,11.53-.97,13.86-1.54l-.31,28.33h0Z"/>
  <g class="cls-3">
    <path class="cls-1" d="M448.95,976.29c-36.3-17.08-67.1-45.93-101.55-66.98-16.7-13.09-44.18-18.87-47.62-42.72,2-6.79,33.63,18.36,41.21,20.16,38.83,25.03,80.16,52.84,107.96,89.54h0Z"/>
    <path class="cls-1" d="M448.98,976.3h-.01s-.01,0-.02-.01c.01,0,.02.01.03.01Z"/>
  </g>
  <g class="cls-3">
    <path class="cls-1" d="M625.3,382.42l-.1.3c-9.52-2.54-31.08-10.85-27.82-12.61,9.68-5.21,20.67-12.87,30.11-20.28,1.28,4.25,3.51,15.67-2.19,32.59Z"/>
    <path class="cls-1" d="M631.46,383.01c6.85-21.41,2.15-34.56,1.03-37.19.79-.65,1.56-1.29,2.31-1.92,7.14-6.02,8.19,34.35-3.34,39.11Z"/>
  </g>
  <path class="cls-2" d="M637.76,334.82c-7.06,7.06-37.11,30.05-42.07,31.62,9.04-9.88,26.82-30.21,36.42-39.53.95-.93,6.7,6.85,5.65,7.91Z"/>
  <path class="cls-2" d="M126.23,254.61c12.43-109.2,123.29-171.65,232.85-170.9,4.91.03-12.43,45.58-15.81,55.72-.88,2.63-2.76,1.09-4.14.84-135.34-24-189.63,95.27-195.8,115.73-2.2,11.76-18.41,11.07-17.09-1.39h-.01Z"/>
  <path class="cls-2" d="M309.7,277.81c-24.81,0-44.99,20.18-44.99,44.98s20.18,44.99,44.99,44.99,44.98-20.18,44.98-44.99-20.18-44.98-44.98-44.98ZM314.73,356.2c-45.06,2.08-46.69-63.04-5.45-64.82,48.39-5.38,49.67,64.51,5.45,64.82ZM309.7,277.81c-24.81,0-44.99,20.18-44.99,44.98s20.18,44.99,44.99,44.99,44.98-20.18,44.98-44.99-20.18-44.98-44.98-44.98ZM314.73,356.2c-45.06,2.08-46.69-63.04-5.45-64.82,48.39-5.38,49.67,64.51,5.45,64.82ZM308.73,265.92c-78.27-.59-73.2,117.62,1.96,115.06,76.58,1.99,78.49-118.96-1.96-115.06ZM309.7,373.15c-27.77,0-50.36-22.59-50.36-50.36s22.59-50.35,50.36-50.35,50.35,22.59,50.35,50.35-22.59,50.36-50.35,50.36h0ZM309.7,277.81c-24.81,0-44.99,20.18-44.99,44.98s20.18,44.99,44.99,44.99,44.98-20.18,44.98-44.99-20.18-44.98-44.98-44.98ZM314.73,356.2c-45.06,2.08-46.69-63.04-5.45-64.82,48.39-5.38,49.67,64.51,5.45,64.82Z"/>
  <path class="cls-2" d="M301.9,417.44c15.28,1.62,5.72,24.37-6.64,21.28-18.07-4.52-5.08-23.72,6.64-21.28Z"/>
  <path class="cls-2" d="M217.91,308.18c.08,13.58-18.81,15.68-20.11,1.72-1.05-12.23,20.76-15.63,20.11-1.72Z"/>
  <path class="cls-2" d="M364.8,220.75c13.82-.44,14.63,19.43,1.62,20.15-12.64.71-13.94-19.74-1.62-20.15Z"/>
  <path class="cls-2" d="M314.19,297.14c41.73,2.15,29.24,58.82-4.41,54.33-32.2-2.07-33.65-57.56,4.41-54.33Z"/>
  <path class="cls-2" d="M161.81,454.53l8.53-9.96c1.61-1.88,4.32-2.39,6.5-1.23l91.88,48.83,5.27,30.12-40.47-9.42c-2.1-.49-4.06-1.47-5.72-2.86l-66-55.49h.01Z"/>
  <path class="cls-2" d="M275.5,529.07l5.27,23.72-67.6-10.87c-4.75-.76-9.12-3.05-12.45-6.53l-57.36-59.78,13.18-16.19,71.15,57.98,47.81,11.67h0Z"/>
  <polygon class="cls-2" points="198.33 606.25 210.75 619.8 252.91 619.05 251.78 607.38 198.33 606.25"/>
  <path class="cls-2" d="M418.37,715.99l-14.99,1.28-1.04.09-17.01,1.45c-2.11-16.34-4.66-30.97-6.97-42.7-.07-.35-.14-.69-.21-1.03-3.47-17.48-6.37-28.27-6.37-28.27,16.28-1.41,43.48-2.54,43.48-2.54l3.11,71.72Z"/>
  <path class="cls-2" d="M336.87,779.43s-32-.01-27.48-25.98c3.01-17.32,27.11-10.92,27.11-10.92,0,0,2.26,21.46.38,36.89h-.01Z"/>
  <path class="cls-2" d="M304.49,766.25s4.52,16.56,31.62,19.95c0,0-.75,21.08-3.39,33.88l-38.78-3.39s4.52-27.11,10.54-50.45h.01Z"/>
  <path class="cls-2" d="M290.18,728.23l45.93-2.26.38,10.54s-31.62-7.53-37.27,22.96c-5.94,32.09-11.29,56.72-11.29,56.72l-15.44-1.75,17.69-86.21h0Z"/>
  <g class="cls-3">
    <path class="cls-1" d="M301.74,675.1l3.45,45.53-13.62.44-4.25-69.65,35.62-1.88c3.08,8.56,4.46,14.41,6.29,23.96l-27.49,1.6h0Z"/>
    <path class="cls-1" d="M307.39,680.06l23.04-1.55c4.07,21.58,5.31,41.43,5.31,41.43l-25.97.66-2.38-40.54Z"/>
  </g>
  <polygon class="cls-2" points="248.43 813.07 232.21 811.43 262.7 674.77 278.9 683.98 279.84 684.52 284.54 687.19 286.04 721.83 265.71 814.81 249.47 813.17 248.43 813.07"/>
  <path class="cls-2" d="M275.5,500.46l13.59,70.02c.66,3.43,3.32,6.12,6.74,6.82l36.15,7.49,3.01-17.32-59.48-67.01h0Z"/>
  <path class="cls-2" d="M354.68,322.79c0,24.81-20.18,44.99-44.98,44.99s-44.99-20.18-44.99-44.99,20.18-44.98,44.99-44.98,44.98,20.18,44.98,44.98Z"/>
  <polygon class="cls-2" points="191.99 801.22 177.09 776.36 191.92 713.31 218.27 699.51 224.31 711.02 203.22 722.07 190.95 774.2 203.14 794.53 191.99 801.22"/>
  <line class="cls-4" x1="309.77" y1="720.6" x2="308.73" y2="720.63"/>
  <path class="cls-2" d="M652.67,564.06s27.95,3.39,53.36-24.56c6.81.59,14.66,19.76-1.69,30.49,0,0-16.94-3.39-34.16-1.69-7.61.75-17.51-4.24-17.51-4.24Z"/>
  <g class="cls-3">
    <g>
      <path class="cls-1" d="M291.66,860.15c.01.64.03,1.28.05,1.92-.04-.64-.05-1.28-.06-1.92.14-.06.28-.11.43-.15-.14.05-.28.1-.42.15h0Z"/>
      <path class="cls-1" d="M291.98,865.51c.1.88.22,1.76.37,2.62-.16-.86-.28-1.73-.37-2.62Z"/>
      <path class="cls-1" d="M373.83,935.11c2.74,1.89,5.46,3.81,8.16,5.77-2.7-1.95-5.42-3.87-8.16-5.77Z"/>
      <path class="cls-1" d="M382.01,940.88c.84.45,1.8,1.03,2.86,1.72-1.07-.68-2.03-1.26-2.88-1.72h.02Z"/>
      <path class="cls-1" d="M388.83,945.22c.83.56,1.69,1.16,2.58,1.8-.9-.63-1.76-1.23-2.58-1.8Z"/>
      <path class="cls-1" d="M395.85,950.19c1.94,1.4,3.97,2.88,6.09,4.43-2.12-1.54-4.16-3.02-6.09-4.43Z"/>
      <path class="cls-1" d="M448.95,976.29c-36.3-17.08-67.1-45.93-101.55-66.98-16.7-13.09-44.18-18.87-47.62-42.72,2-6.79,33.63,18.36,41.21,20.16,38.83,25.03,80.16,52.84,107.96,89.54h0Z"/>
      <path class="cls-1" d="M408.5,959.38c1.68,1.21,3.38,2.43,5.1,3.65-1.72-1.21-3.43-2.44-5.1-3.65Z"/>
      <path class="cls-1" d="M413.97,963.3c1.83,1.29,3.67,2.59,5.51,3.86-1.85-1.26-3.69-2.56-5.51-3.86Z"/>
      <path class="cls-1" d="M419.48,967.16c1.85,1.28,3.7,2.54,5.54,3.77-1.84-1.22-3.69-2.48-5.54-3.77Z"/>
      <path class="cls-1" d="M428.26,973.06c1.08.7,2.15,1.38,3.21,2.04-1.06-.65-2.13-1.34-3.21-2.04Z"/>
      <path class="cls-1" d="M440.26,980.25c1.05.56,2.09,1.1,3.1,1.6-1.01-.49-2.04-1.03-3.1-1.6Z"/>
      <path class="cls-1" d="M448.97,976.31l-.02-.02s.02.01.03.01h-.01Z"/>
    </g>
    <path class="cls-1" d="M419.01,919.27c-29.31-28.94-66.05-47.6-102-66.93-44.91-25.94-100.44-18.17-147.03-.44-94.69,32.1-137.61,138.38-160.13,228.08-3.39,16.31-9.88,66.73-9.85,83.26h39.96c1.28-39.24,14.81-109.35,42.85-159.52,88.91-159.09,335.44-17.48,281.02,159.52h108.17c23.42-105.01,38.97-173.95-52.99-243.97ZM460.27,985.39s0,.01,0,0c-.32.17-.66.3-1.02.4-.73.21-1.54.31-2.42.31-.25,0-.51,0-.78-.03-.26-.01-.52-.04-.8-.07-.19-.03-.39-.06-.6-.09-.25-.03-.5-.08-.76-.13-.33-.07-.66-.14-1-.23-.23-.05-.47-.11-.71-.18-.14-.04-.28-.08-.43-.12-.14-.04-.29-.08-.44-.13-.3-.09-.6-.19-.9-.29-.62-.21-1.25-.44-1.9-.69-.33-.13-.66-.26-.99-.4-.21-.08-.43-.18-.64-.26-.02-.01-.03-.01-.05-.02-.27-.12-.55-.24-.83-.37h-.01c-.51-.23-1.03-.47-1.56-.72-.35-.17-.71-.35-1.06-.52-1.01-.5-2.05-1.04-3.1-1.6-.35-.19-.7-.38-1.06-.58-.47-.26-.95-.53-1.43-.8-.39-.22-.77-.44-1.16-.67s-.78-.46-1.18-.69c-.68-.39-1.37-.81-2.06-1.23-.1-.07-.21-.14-.32-.2-.53-.32-1.05-.65-1.58-.98-1.06-.66-2.13-1.34-3.21-2.04-.52-.34-1.04-.68-1.56-1.02s-1.05-.69-1.57-1.03c-.04-.03-.07-.06-.11-.08-1.84-1.23-3.69-2.49-5.54-3.77-1.84-1.27-3.68-2.57-5.51-3.86-.12-.1-.25-.18-.37-.27-1.72-1.22-3.42-2.44-5.1-3.65-.42-.31-.84-.62-1.26-.92-.03-.02-.05-.04-.08-.05-.67-.48-1.33-.96-1.99-1.44-.65-.48-1.3-.95-1.95-1.42-.43-.32-.86-.63-1.28-.93-2.12-1.55-4.15-3.03-6.09-4.43h-.01c-.39-.28-.77-.56-1.15-.83s-.75-.54-1.12-.8c-.64-.47-1.27-.92-1.89-1.35-.09-.07-.18-.13-.27-.19-.89-.64-1.75-1.24-2.58-1.8-.79-.55-1.55-1.06-2.27-1.53-.29-.19-.58-.38-.86-.56-.28-.19-.56-.36-.83-.53-1.06-.69-2.02-1.27-2.86-1.72h-.02c-2.7-1.96-5.42-3.88-8.16-5.77-1.38-.95-2.76-1.89-4.14-2.82-2.76-1.87-5.53-3.71-8.31-5.54-1.39-.92-2.79-1.83-4.18-2.74-5.59-3.64-11.21-7.23-16.83-10.83-4.2-2.7-8.4-5.41-12.59-8.14h-.01c-2.78-1.83-5.56-3.67-8.33-5.53-1.38-.93-2.76-1.87-4.14-2.81-.12-.05-.24-.1-.36-.15-.33-.14-.66-.28-.98-.42-.24-.1-.47-.21-.7-.32-.67-.3-1.32-.62-1.95-.96-.31-.16-.62-.33-.93-.51-.31-.17-.61-.35-.91-.52-.6-.36-1.18-.73-1.75-1.11-.29-.19-.57-.38-.84-.58-.32-.23-.64-.46-.96-.7-.38-.29-.75-.58-1.11-.87-.01-.02-.03-.03-.05-.05-.34-.28-.67-.57-1-.86l-.06-.06c-.31-.26-.6-.54-.89-.82-.02-.02-.05-.05-.07-.07-.14-.13-.28-.27-.42-.41-.46-.46-.92-.94-1.35-1.43-.14-.16-.29-.33-.43-.5-.46-.54-.91-1.09-1.33-1.66-.19-.25-.37-.49-.55-.75-.17-.24-.34-.48-.5-.73-.16-.23-.31-.46-.46-.7-.11-.17-.21-.34-.32-.52-.19-.3-.37-.61-.55-.92-.02-.04-.05-.09-.07-.13-.23-.4-.45-.8-.65-1.21-.16-.3-.31-.6-.45-.91-.01-.03-.02-.05-.04-.08-.08-.18-.17-.38-.26-.57-.53-1.16-1-2.35-1.41-3.57-.11-.31-.21-.63-.3-.94-.06-.21-.06-.21-.01-.02-.01-.05-.03-.09-.04-.14-.06-.2-.11-.4-.17-.59-.07-.25-.15-.51-.21-.76-.07-.26-.14-.51-.2-.77-.02-.05-.03-.09-.04-.14,0-.03-.01-.06-.02-.09,0-.02-.01-.03-.01-.05-.14-.56-.26-1.12-.37-1.69-.08-.43-.16-.86-.23-1.29-.15-.86-.27-1.74-.37-2.62-.05-.45-.09-.89-.13-1.34-.01-.06-.02-.11-.02-.17v-.09c-.04-.51-.08-1.04-.1-1.55-.01-.08-.02-.15-.02-.23v-.05h0c-.02-.65-.04-1.29-.05-1.93.14-.05.28-.1.42-.15.11-.03.22-.07.34-.1.11-.03.23-.07.35-.09.06-.02.13-.03.2-.05.22-.04.44-.08.68-.12.04-.01.09-.01.15-.02.22-.03.44-.05.68-.07.07,0,.14-.01.22-.01.28-.02.58-.03.88-.03h.08c.3,0,.6.01.92.03.12,0,.25.01.38.03.12,0,.24.01.37.02.17.02.36.04.54.06.06,0,.11,0,.17.02.24.03.48.06.73.1.1,0,.21.03.32.05.18.02.36.05.54.08.31.06.63.12.95.19.44.08.89.18,1.36.3h.02c.19.04.4.1.6.15.07.02.15.04.23.06.21.05.41.11.61.17.2.05.41.11.62.17.42.12.84.25,1.28.39.23.07.46.14.7.22.37.12.75.24,1.13.37s.77.26,1.16.41c.39.13.78.28,1.18.43.4.14.8.3,1.2.46.68.26,1.37.53,2.08.84.08.04.17.07.25.11.02,0,.04.01.06.02.06.02.11.05.17.07.4.16.8.34,1.21.52.43.18.87.37,1.31.58.87.38,1.76.79,2.67,1.22.45.21.91.43,1.37.65.46.22.93.45,1.4.68h.01c.53.26,1.06.52,1.59.79.89.44,1.78.9,2.69,1.38.97.5,1.96,1.02,2.96,1.57.5.27,1,.54,1.5.82.5.27,1.01.55,1.52.84.51.28,1.02.57,1.54.86.52.28,1.04.58,1.56.88h.01c.51.29,1.03.59,1.55.9.52.29,1.05.6,1.58.92,1.59.92,3.2,1.88,4.83,2.87,1.09.66,2.18,1.33,3.28,2.01h.01c.55.34,1.09.68,1.64,1.03,1.11.69,2.22,1.39,3.34,2.11,1.13.71,2.24,1.43,3.37,2.17h.01c1.13.73,2.26,1.47,3.39,2.23.58.37,1.15.75,1.72,1.14,1.71,1.14,3.43,2.3,5.15,3.48.58.39,1.15.79,1.73,1.19,1.15.78,2.3,1.58,3.46,2.4.58.4,1.16.81,1.75,1.22,1.15.82,2.31,1.64,3.46,2.47,2.32,1.66,4.63,3.34,6.94,5.04.93.68,1.86,1.37,2.78,2.06,2.03,1.5,4.05,3.03,6.06,4.56,1.06.81,2.12,1.62,3.18,2.45.57.43,1.14.87,1.7,1.32.57.43,1.13.87,1.69,1.32,2.24,1.75,4.46,3.52,6.66,5.3.52.41,1.05.84,1.57,1.27,2.2,1.78,4.38,3.57,6.51,5.37.93.77,1.85,1.54,2.76,2.32.13.11.26.22.39.33.81.69,1.61,1.38,2.41,2.07.74.63,1.47,1.26,2.19,1.89,2.01,1.75,3.98,3.5,5.89,5.23.48.43.96.86,1.43,1.29,1.02.93,2.02,1.85,3.01,2.77.1.1.21.2.31.29.74.69,1.46,1.38,2.18,2.05.89.84,1.76,1.68,2.62,2.51s1.7,1.66,2.53,2.48c.41.4.82.8,1.22,1.22.41.41.81.81,1.2,1.21.62.63,1.22,1.25,1.82,1.87.03.02.05.05.07.07.15.15.29.3.43.45.39.4.76.79,1.12,1.18.09.08.16.17.24.25.29.31.58.62.85.92.21.22.41.44.61.66.23.24.44.47.66.71.42.47.84.93,1.25,1.39.06.07.12.13.18.2.47.53.93,1.06,1.38,1.58,1.29,1.48,2.49,2.91,3.58,4.3,1.11,1.39,2.13,2.74,3.04,4.04.23.33.46.65.67.97.23.32.44.64.64.95.22.32.42.63.6.93.2.31.38.61.56.91.36.6.7,1.19,1.01,1.76.16.28.3.56.43.84.16.28.29.56.41.83.13.27.25.54.36.8.12.26.22.52.32.78.11.26.2.51.28.76.27.75.46,1.46.59,2.13-.27.22-.57.41-.9.57h-.01Z"/>
    <path class="cls-1" d="M137.91,1163.24c-35.04-45.73-8.26-147.5,46.14-166.27,90.95-31.38,142.79,102.53,90.01,166.27h86.73c39.43-166.55-159.12-301.51-265.49-167.59-37.82,47.62-44.04,127.45-49.65,167.59h92.26,0Z"/>
  </g>
</svg>