<?xml version="1.0" encoding="UTF-8"?>
<svg id="Layer_1" data-name="Layer 1" xmlns="http://www.w3.org/2000/svg" viewBox="0 0 562.52 562.52">
  <defs>
    <style>
      .cls-1 {
        fill: #fff;
      }

      .cls-2 {
        fill: #34bf0b;
      }
    </style>
  </defs>
  <path class="cls-2" d="M281.26,0C126.19,0,0,126.2,0,281.26s126.2,281.26,281.26,281.26,281.26-126.2,281.26-281.26S436.32,0,281.26,0Z"/>
  <path class="cls-1" d="M398.24,185.67l-150.11,150.11-67.19-67.19c-8.69-8.69-22.76-8.69-31.45,0s-8.69,22.76,0,31.45l82.92,82.92c4.33,4.33,10.04,6.52,15.73,6.52s11.36-2.16,15.73-6.52l165.83-165.83c8.69-8.69,8.69-22.76,0-31.45s-22.76-8.69-31.45,0h-.01Z"/>
</svg>