<?xml version="1.0" encoding="UTF-8"?>
<svg id="Layer_1" data-name="Layer 1" xmlns="http://www.w3.org/2000/svg" viewBox="0 0 787.52 982.37">
  <defs>
    <style>
      .cls-1 {
        fill: #ffbc15;
      }
    </style>
  </defs>
  <path class="cls-1" d="M487.5,206.26c0,51.75,42,93.75,93.75,93.75h195.37L487.49,10.88v195.37h.01Z"/>
  <path class="cls-1" d="M2,843.2c0,76.66,61.24,139.16,137.9,139.16l516.37-7.33c72.38,0,131.26-58.89,131.26-131.26v-506.26h-206.26c-72.39,0-131.26-58.89-131.26-131.26V0H131.26C58.77,0,0,58.77,0,131.26v394.31c0,111.34,2,179.09,2,317.63ZM637.5,487.51c0,10.31-8.44,18.75-18.75,18.75H168.75c-10.31,0-18.75-8.44-18.75-18.75s8.44-18.75,18.75-18.75h450c10.31,0,18.75,8.44,18.75,18.75ZM144.52,787.51c0-10.31,8.44-18.75,18.75-18.75h455.48c10.31,0,18.75,8.44,18.75,18.75s-8.44,18.75-18.75,18.75H163.27c-10.31,0-18.75-8.44-18.75-18.75ZM147.14,637.51c0-10.31,8.44-18.75,18.75-18.75h452.86c10.31,0,18.75,8.44,18.75,18.75s-8.44,18.75-18.75,18.75H165.89c-10.31,0-18.75-8.44-18.75-18.75Z"/>
</svg>