<?xml version="1.0" encoding="UTF-8"?>
<svg id="Layer_1" xmlns="http://www.w3.org/2000/svg" version="1.1" viewBox="0 0 1200 992.3">
  <!-- Generator: Adobe Illustrator 30.3.0, SVG Export Plug-In . SVG Version: 2.1.3 Build 182)  -->
  <defs>
    <style>
      .st0 {
        fill: #fff;
      }
    </style>
  </defs>
  <path class="st0" d="M1184.6,892.2L663.1,42.1c-34.7-56.7-91.5-55.9-126.2.8L15.4,891.8c-34.7,56.7-8.8,100.5,57.6,100.5h1053.9c66.4,0,92.4-43.5,57.6-100.1h0ZM599.6,230.3c33.4,0,59.2,36.9,57.5,82l-10.6,271.7c-1.7,45-22.9,81.9-47.1,81.9s-45.4-36.9-47.1-81.9l-10.5-271.7c-1.7-45.1,24.2-82,57.7-82h0ZM599.6,870.5c-42.1,0-71-30.8-70.2-72.9,0-43,29-72.9,70.2-72.9s70.1,29.9,71,72.9c0,42.1-28.1,72.9-71,72.9Z"/>
</svg>