<?xml version="1.0" encoding="UTF-8"?>
<svg id="Layer_1" xmlns="http://www.w3.org/2000/svg" version="1.1" viewBox="0 0 744.1 743.9">
  <!-- Generator: Adobe Illustrator 29.8.2, SVG Export Plug-In . SVG Version: 2.1.1 Build 3)  -->
  <defs>
    <style>
      .st0 {
        fill: #333;
      }
    </style>
  </defs>
  <path class="st0" d="M.1,611.9c0,72.8,59.2,132,132,132h480c72.8,0,132-59.2,132-132v-306.8c0-53.5-26.4-103.6-70.7-133.7L463.2,28.1C436.2,9.7,404.6,0,372,0s-64.2,9.7-91.2,28.1L70.7,171.4C26.4,201.5,0,251.5,0,305v306.8h.1ZM456.1,671.9h-168v-168c0-46.3,37.7-84,84-84s84,37.7,84,84v168ZM72.1,305c0-29.8,14.6-57.5,39.2-74.2l210.2-143.3c30-20.4,71.3-20.4,101.2,0l210.2,143.3c24.6,16.8,39.2,44.5,39.2,74.2v306.8c0,33.1-26.9,60-60,60h-84v-168c0-86-70-156-156-156s-156,70-156,156v168h-84c-33.1,0-60-26.9-60-60v-306.8h-.1Z"/>
</svg>