<?xml version="1.0" encoding="UTF-8"?>
<svg id="Layer_1" data-name="Layer 1" xmlns="http://www.w3.org/2000/svg" viewBox="0 0 744 744">
  <defs>
    <style>
      .cls-1 {
        fill: #ffbc15;
      }
    </style>
  </defs>
  <path class="cls-1" d="M635.04,108.96C565.28,39.19,470.66,0,372,0S178.72,39.19,108.96,108.96C39.19,178.72,0,273.34,0,372s39.19,193.28,108.96,263.04c69.76,69.77,164.38,108.96,263.04,108.96s193.28-39.19,263.04-108.96c69.77-69.76,108.96-164.38,108.96-263.04s-39.19-193.28-108.96-263.04ZM584.53,306.32l-201.28,200.14c-16.61,16.65-39.16,26.01-62.68,26.01s-46.07-9.36-62.67-26.01l-86.57-86.57c-9.51-9.53-14.68-22.55-14.31-36.01s6.25-26.18,16.27-35.17c8.72-7.66,19.98-11.8,31.58-11.62,14.54.11,28.43,6,38.62,16.36l77.24,77.9,191.8-191.79c8.97-9.42,21.17-15.1,34.16-15.92,12.97-.81,25.79,3.29,35.88,11.49,10.06,8.99,15.97,21.7,16.36,35.18.34,13.48-4.86,26.49-14.4,36.01Z"/>
</svg>