<?xml version="1.0" encoding="UTF-8"?>
<svg id="Isolation_Mode" xmlns="http://www.w3.org/2000/svg" version="1.1" viewBox="0 0 198.9 198.9">
  <!-- Generator: Adobe Illustrator 29.7.1, SVG Export Plug-In . SVG Version: 2.1.1 Build 8)  -->
  <defs>
    <style>
      .st0 {
        fill: #fcb535;
        fill-rule: evenodd;
      }
    </style>
  </defs>
  <path class="st0" d="M103.2,3.2l9.6,55.6c1.2,7.1,4.5,13.3,9.2,18,4.7,4.7,10.9,8,18,9.2l55.6,9.6c2.1.4,3.5,2.4,3.2,4.5-.3,1.7-1.6,2.9-3.2,3.2l-55.6,9.6c-7.1,1.2-13.3,4.5-18,9.2s-8,10.9-9.2,18l-9.6,55.6c-.4,2.1-2.4,3.5-4.5,3.2-1.7-.3-2.9-1.6-3.2-3.2l-9.6-55.6c-1.2-7.1-4.5-13.3-9.2-18s-10.9-8-18-9.2L3.2,103.2c-2.1-.4-3.5-2.4-3.2-4.5.3-1.7,1.6-2.9,3.2-3.2l55.6-9.6c7.1-1.2,13.3-4.5,18-9.2,4.7-4.7,8-10.9,9.2-18L95.6,3.2c.4-2.1,2.4-3.5,4.5-3.2,1.7.3,2.9,1.6,3.2,3.2h0Z"/>
</svg>