<?xml version="1.0" encoding="UTF-8"?>
<svg id="Layer_1" data-name="Layer 1" xmlns="http://www.w3.org/2000/svg" viewBox="0 0 834.38 964.35">
  <defs>
    <style>
      .cls-1 {
        fill-rule: evenodd;
      }
    </style>
  </defs>
  <path class="cls-1" d="M0,180c0-47.74,18.96-93.52,52.72-127.28C86.48,18.97,132.26,0,180,0h264.8c24.53.01,48.8,5.03,71.32,14.75,22.52,9.72,42.82,23.94,59.65,41.78l209.81,222.56c31.38,33.43,48.84,77.57,48.8,123.42v381.84c0,47.74-18.97,93.52-52.72,127.28-33.75,33.76-79.54,52.72-127.28,52.72H179.9c-47.71-.02-93.47-18.99-127.2-52.74C18.97,877.87.01,832.12,0,784.41V180ZM654.47,870.66H179.91c-22.86-.02-44.77-9.12-60.93-25.3-16.16-16.17-25.23-38.09-25.23-60.95V180c0-22.88,9.09-44.81,25.26-60.99,16.18-16.18,38.11-25.26,60.99-25.26h189.19v206.25c0,47.74,18.97,93.52,52.72,127.28,33.75,33.76,79.54,52.72,127.28,52.72h191.44v304.22c.05,22.89-9,44.86-25.16,61.07-16.16,16.22-38.1,25.34-60.99,25.36h-.01ZM739.22,386.44c-3.09-16.15-10.74-31.08-22.03-43.03l-209.77-222.56c-11.96-12.71-27.51-21.48-44.58-25.12v204.47c0,22.88,9.09,44.81,25.26,60.99,16.18,16.18,38.11,25.26,60.99,25.26h190.13Z"/>
</svg>