<?xml version="1.0" encoding="UTF-8"?>
<svg id="Layer_1" data-name="Layer 1" xmlns="http://www.w3.org/2000/svg" viewBox="0 0 480 576">
  <defs>
    <style>
      .cls-1 {
        fill: #ffbc15;
      }
    </style>
  </defs>
  <path class="cls-1" d="M0,96v384c.15,1.34.43,2.67.84,3.96,0,2.76-.84,5.28-.84,8.04,0,22.28,8.85,43.65,24.6,59.4,15.75,15.75,37.12,24.6,59.4,24.6h372c6.36,0,12.47-2.53,16.97-7.03,4.5-4.5,7.03-10.6,7.03-16.97V24c0-6.36-2.53-12.47-7.03-16.97-4.5-4.5-10.6-7.03-16.97-7.03H96c-25.46,0-49.88,10.11-67.88,28.12S0,70.54,0,96h0ZM432,528H84c-12.86,0-24.75-6.86-31.18-18-6.43-11.14-6.43-24.86,0-36,6.43-11.14,18.31-18,31.18-18h348v72ZM432,408H84c-12.48.09-24.77,2.96-36,8.4V96c0-12.73,5.06-24.94,14.06-33.94,9-9,21.21-14.06,33.94-14.06h336v360Z"/>
  <path class="cls-1" d="M144,264h192c6.36,0,12.47-2.53,16.97-7.03,4.5-4.5,7.03-10.6,7.03-16.97v-96c0-6.36-2.53-12.47-7.03-16.97-4.5-4.5-10.6-7.03-16.97-7.03h-192c-6.36,0-12.47,2.53-16.97,7.03-4.5,4.5-7.03,10.61-7.03,16.97v96c0,6.36,2.53,12.47,7.03,16.97,4.5,4.5,10.61,7.03,16.97,7.03ZM168,168h144v48h-144v-48Z"/>
</svg>