<?xml version="1.0" encoding="UTF-8"?>
<svg id="Layer_1" data-name="Layer 1" xmlns="http://www.w3.org/2000/svg" viewBox="0 0 744 744">
  <defs>
    <style>
      .cls-1 {
        fill: #23a755;
      }
    </style>
  </defs>
  <path class="cls-1" d="M372,0c-98.66,0-193.28,39.19-263.04,108.96C39.19,178.72,0,273.34,0,372s39.19,193.28,108.96,263.04c69.76,69.77,164.38,108.96,263.04,108.96s193.28-39.19,263.04-108.96c69.77-69.76,108.96-164.38,108.96-263.04s-39.19-193.28-108.96-263.04C565.28,39.19,470.66,0,372,0ZM372,672c-79.57,0-155.87-31.6-212.13-87.87-56.26-56.26-87.87-132.57-87.87-212.13s31.61-155.87,87.87-212.13c56.26-56.26,132.57-87.87,212.13-87.87s155.87,31.61,212.13,87.87c56.26,56.26,87.87,132.57,87.87,212.13s-31.6,155.87-87.87,212.13c-56.26,56.26-132.57,87.87-212.13,87.87Z"/>
  <path class="cls-1" d="M540,299.04c-.29-9.88-4.62-19.21-12-25.8-7.4-6.02-16.8-9.02-26.31-8.43-9.52.6-18.47,4.77-25.05,11.67l-140.64,140.64-56.64-57.12c-7.48-7.6-17.66-11.91-28.32-12-8.51-.13-16.76,2.91-23.16,8.52-7.34,6.6-11.66,15.92-11.93,25.79-.27,9.87,3.52,19.41,10.49,26.41l63.48,63.48c12.18,12.21,28.72,19.07,45.96,19.07s33.78-6.86,45.96-19.07l147.6-146.76c6.99-6.98,10.81-16.52,10.56-26.4h0Z"/>
</svg>