<?xml version="1.0" encoding="UTF-8"?>
<svg id="Layer_1" data-name="Layer 1" xmlns="http://www.w3.org/2000/svg" viewBox="0 0 1050.03 1125.03">
  <defs>
    <style>
      .cls-1, .cls-2 {
        fill: #ffbc15;
      }

      .cls-2 {
        opacity: .5;
      }
    </style>
  </defs>
  <path class="cls-2" d="M750.01,206.26c0,51.75,42,93.75,93.75,93.75h195.37L750,10.88v195.37h.01Z"/>
  <path class="cls-2" d="M281.27,525.04c175.68,0,318.74,143.05,318.74,318.74,0,46.7-10.13,91.32-28.5,131.26h347.26c72.38,0,131.26-58.89,131.26-131.26v-506.26h-206.26c-72.39,0-131.26-58.89-131.26-131.26V0h-318.74c-72.39,0-131.26,58.88-131.26,131.26v394.31c6.19-.37,12.37-.56,18.75-.56v.03h0ZM900.01,487.51c0,10.31-8.44,18.75-18.75,18.75h-450c-10.31,0-18.75-8.44-18.75-18.75s8.44-18.75,18.75-18.75h450c10.31,0,18.75,8.44,18.75,18.75ZM637.51,787.51c0-10.31,8.44-18.75,18.75-18.75h225c10.31,0,18.75,8.44,18.75,18.75s-8.44,18.75-18.75,18.75h-225c-10.31,0-18.75-8.44-18.75-18.75ZM600.01,637.51c0-10.31,8.44-18.75,18.75-18.75h262.5c10.31,0,18.75,8.44,18.75,18.75s-8.44,18.75-18.75,18.75h-262.5c-10.31,0-18.75-8.44-18.75-18.75Z"/>
  <path class="cls-1" d="M281.26,562.51C126.19,562.51,0,688.71,0,843.77s126.2,281.26,281.26,281.26,281.26-126.2,281.26-281.26-126.2-281.26-281.26-281.26ZM416.75,865.37h-113.89v113.9c0,5.96-2.42,11.36-6.33,15.26-3.91,3.91-9.31,6.33-15.27,6.33-11.93,0-21.6-9.67-21.6-21.59v-113.9h-113.89c-5.97,0-11.37-2.42-15.27-6.33-3.91-3.91-6.33-9.31-6.33-15.27,0-11.92,9.67-21.6,21.6-21.6h113.89v-113.89c0-5.97,2.42-11.37,6.33-15.27,3.91-3.91,9.31-6.33,15.27-6.33,11.93,0,21.6,9.67,21.6,21.6v113.89h113.89c5.97,0,11.37,2.42,15.27,6.33,3.91,3.91,6.33,9.31,6.33,15.27,0,11.93-9.67,21.6-21.6,21.6Z"/>
</svg>