<?xml version="1.0" encoding="UTF-8"?>
<svg id="Layer_1" data-name="Layer 1" xmlns="http://www.w3.org/2000/svg" viewBox="0 0 1163.41 1163.41">
  <defs>
    <style>
      .cls-1 {
        fill: #fcb535;
      }
    </style>
  </defs>
  <path class="cls-1" d="M1163.41,466.99v286.31c0,131.31-106.83,238.13-238.13,238.13-65.45,0-127,25.51-173.32,71.84l-50.39,50.39c-32.09,32.08-74.73,49.75-120.06,49.75s-87.97-17.67-120.06-49.77l-50.38-50.18c-46.23-46.23-107.64-71.74-172.94-71.84C106.82,991.62,0,884.8,0,753.49V238.14C0,106.83,106.82,0,238.13,0h458.09c26.06,0,47.26,21.2,47.26,47.26s-21.2,47.26-47.26,47.26H238.13c-79.19,0-143.61,64.43-143.61,143.62v515.35c0,79.19,64.42,143.61,143.61,143.61,90.75,0,176.02,35.29,240.12,99.39l50.32,50.13c13.9,14.11,32.77,21.88,53.13,21.88s39.01-7.75,53.08-21.82l50.39-50.39c64.09-64.09,149.36-99.38,240.11-99.38,79.18,0,143.61-64.42,143.61-143.61v-286.31c0-26.06,21.2-47.26,47.26-47.26s47.26,21.2,47.26,47.26Z"/>
  <path class="cls-1" d="M1160.59,104.62l-10.93,5.47c-37.12,18.55-66.65,48.08-85.41,85.4l-5.56,11.12-5.56-11.12c-18.56-37.12-48.08-66.64-85.38-85.39l-10.96-5.48,10.94-5.47c37.11-18.56,66.64-48.08,85.4-85.4l5.56-11.13,5.57,11.15c18.42,36.64,48.74,66.96,85.39,85.38l10.94,5.47Z"/>
  <path class="cls-1" d="M857.63,513.13c0,26.06-21.2,47.26-47.27,47.26h-181.78v181.78c0,26.06-21.2,47.27-47.26,47.27s-47.26-21.21-47.26-47.27v-181.78h-181.79c-26.06,0-47.26-21.2-47.26-47.26s21.2-47.26,47.26-47.26h181.79v-181.79c0-26.06,21.2-47.26,47.26-47.26s47.26,21.2,47.26,47.26v181.79h181.78c26.07,0,47.27,21.2,47.27,47.26Z"/>
</svg>