<?xml version="1.0" encoding="UTF-8"?>
<svg id="Layer_1" data-name="Layer 1" xmlns="http://www.w3.org/2000/svg" viewBox="0 0 744.36 740.97">
  <defs>
    <style>
      .cls-1 {
        fill: #e23000;
      }
    </style>
  </defs>
  <path class="cls-1" d="M84.18,258.81l45.48,386.76c3.1,26.39,15.82,50.7,35.72,68.3,19.9,17.6,45.59,27.25,72.16,27.09h269.28c26.47,0,52.01-9.71,71.79-27.29,19.78-17.59,32.41-41.82,35.5-68.1l46.08-386.76c.19-3.28.19-6.56,0-9.84v-12h48c10.21.05,19.95-4.23,26.82-11.79,6.87-7.55,10.2-17.66,9.18-27.82-1.24-9.14-5.8-17.49-12.82-23.47s-16-9.16-25.22-8.93h-165.96v-11.16c-3.55-41.95-22.73-81.04-53.73-109.52C455.45,15.81,414.88,0,372.78,0s-82.67,15.8-113.67,44.29c-31,28.49-50.18,67.57-53.73,109.52l-1.2,11.16H38.22c-9.21-.23-18.2,2.95-25.21,8.93S1.42,188.23.18,197.37c-1.02,10.16,2.32,20.27,9.18,27.82,6.86,7.55,16.61,11.84,26.82,11.79h48v12c-.2,3.28-.2,6.56,0,9.84h0ZM276.18,150.81c4.62-30.54,23.65-56.99,51.14-71.07,27.48-14.09,60.07-14.09,87.56,0,27.49,14.09,46.52,40.54,51.14,71.07l3.12,14.16h-193.92l.96-14.16ZM588.18,236.49l-45.6,400.68c-1.03,8.8-5.28,16.91-11.92,22.78-6.64,5.87-15.22,9.08-24.08,9.02H237.54c-8.86.06-17.44-3.15-24.08-9.02-6.64-5.87-10.89-13.98-11.92-22.78l-46.8-400.2,433.44-.48Z"/>
</svg>