<?xml version="1.0" encoding="UTF-8"?>
<svg id="Layer_1" data-name="Layer 1" xmlns="http://www.w3.org/2000/svg" viewBox="0 0 1050.03 1125.03">
  <defs>
    <style>
      .cls-1 {
        fill: #fff;
      }

      .cls-2 {
        fill: #333;
      }
    </style>
  </defs>
  <path class="cls-1" d="M750.01,206.26c0,51.75,42,93.75,93.75,93.75h195.37S750,10.88,750,10.88v195.37s.01,0,.01,0Z"/>
  <path class="cls-1" d="M281.27,525.04c175.68,0,318.74,143.05,318.74,318.74,0,46.7-10.13,91.32-28.5,131.26h347.26c72.38,0,131.26-58.89,131.26-131.26v-506.26s-206.26,0-206.26,0c-72.39,0-131.26-58.89-131.26-131.26V0S393.77,0,393.77,0c-72.39,0-131.26,58.88-131.26,131.26v394.31c6.19-.37,12.37-.56,18.75-.56v.03ZM900.01,487.51c0,10.31-8.44,18.75-18.75,18.75h-450c-10.31,0-18.75-8.44-18.75-18.75,0-10.31,8.44-18.75,18.75-18.75h450c10.31,0,18.75,8.44,18.75,18.75ZM637.51,787.51c0-10.31,8.44-18.75,18.75-18.75h225c10.31,0,18.75,8.44,18.75,18.75,0,10.31-8.44,18.75-18.75,18.75h-225c-10.31,0-18.75-8.44-18.75-18.75ZM600.01,637.51c0-10.31,8.44-18.75,18.75-18.75h262.5c10.31,0,18.75,8.44,18.75,18.75,0,10.31-8.44,18.75-18.75,18.75h-262.5c-10.31,0-18.75-8.44-18.75-18.75Z"/>
  <path class="cls-2" d="M0,843.77c0,155.07,126.2,281.26,281.26,281.26,155.07,0,281.26-126.2,281.26-281.26,0-155.07-126.2-281.26-281.26-281.26C126.19,562.51,0,688.71,0,843.77ZM155.45,811.69l112.5-112.5c7.31-7.31,19.31-7.31,26.62,0l112.5,112.5c7.31,7.31,7.31,19.31,0,26.62-7.31,7.31-19.31,7.31-26.62,0l-80.44-80.63v236.06c0,10.31-8.44,18.75-18.75,18.75-10.31,0-18.75-8.44-18.75-18.75v-236.06s-80.44,80.62-80.44,80.62c-3.75,3.56-8.44,5.44-13.31,5.44s-9.56-1.88-13.31-5.44c-7.31-7.31-7.31-19.31,0-26.62Z"/>
</svg>