<?xml version="1.0" encoding="UTF-8"?>
<svg id="Layer_1" data-name="Layer 1" xmlns="http://www.w3.org/2000/svg" viewBox="0 0 744 744">
  <defs>
    <style>
      .cls-1 {
        fill: #2563eb;
      }

      .cls-2 {
        fill: #fff;
      }
    </style>
  </defs>
  <g>
    <path class="cls-2" d="M372,734.5c-47.85,0-94.52-9.28-138.72-27.59-44.2-18.31-83.77-44.75-117.6-78.58-33.84-33.83-60.27-73.4-78.58-117.6-18.31-44.2-27.59-90.88-27.59-138.72s9.28-94.52,27.59-138.72c18.31-44.2,44.75-83.77,78.58-117.6,33.83-33.84,73.4-60.27,117.6-78.58,44.2-18.31,90.88-27.59,138.72-27.59s94.52,9.28,138.72,27.59c44.21,18.31,83.77,44.75,117.6,78.58,33.83,33.83,60.27,73.4,78.58,117.6,18.31,44.2,27.59,90.88,27.59,138.72s-9.28,94.52-27.59,138.72c-18.31,44.21-44.75,83.77-78.58,117.6-33.83,33.83-73.4,60.27-117.6,78.58-44.2,18.31-90.88,27.59-138.72,27.59Z"/>
    <path class="cls-1" d="M372,19c46.59,0,92.04,9.04,135.09,26.87,43.05,17.83,81.58,43.58,114.52,76.53,32.95,32.94,58.69,71.47,76.52,114.52,17.83,43.04,26.87,88.49,26.87,135.09s-9.04,92.04-26.87,135.09c-17.83,43.05-43.58,81.58-76.53,114.52-32.94,32.95-71.47,58.69-114.52,76.52-43.04,17.83-88.49,26.87-135.09,26.87s-92.04-9.04-135.09-26.87c-43.05-17.83-81.58-43.58-114.52-76.53-32.95-32.94-58.69-71.47-76.52-114.52-17.83-43.04-26.87-88.49-26.87-135.09s9.04-92.04,26.87-135.09c17.83-43.05,43.58-81.58,76.53-114.52,32.94-32.95,71.47-58.69,114.52-76.52,43.04-17.83,88.49-26.87,135.09-26.87M372,0c-98.66,0-193.28,39.19-263.04,108.96C39.19,178.72,0,273.34,0,372s39.19,193.28,108.96,263.04c69.76,69.77,164.38,108.96,263.04,108.96s193.28-39.19,263.04-108.96c69.77-69.76,108.96-164.38,108.96-263.04s-39.19-193.28-108.96-263.04C565.28,39.19,470.66,0,372,0h0Z"/>
  </g>
  <g>
    <rect class="cls-1" x="319.34" y="148.17" width="105.31" height="447.66" rx="52.66" ry="52.66"/>
    <rect class="cls-1" x="319.34" y="148.17" width="105.31" height="447.66" rx="52.66" ry="52.66" transform="translate(0 744) rotate(-90)"/>
  </g>
</svg>