<?xml version="1.0" encoding="UTF-8"?>
<svg id="Layer_1" data-name="Layer 1" xmlns="http://www.w3.org/2000/svg" viewBox="0 0 744 744">
  <defs>
    <style>
      .cls-1 {
        fill: #dc2626;
      }
    </style>
  </defs>
  <path class="cls-1" d="M370.83.14C272.17.14,177.55,39.33,107.79,109.1,38.02,178.86-1.17,273.48-1.17,372.14s39.19,193.28,108.96,263.04c69.76,69.77,164.38,108.96,263.04,108.96s193.28-39.19,263.04-108.96c69.77-69.76,108.96-164.38,108.96-263.04s-39.19-193.28-108.96-263.04C564.11,39.33,469.49.14,370.83.14ZM370.83,672.14c-79.57,0-155.87-31.6-212.13-87.87-56.26-56.26-87.87-132.57-87.87-212.13s31.61-155.87,87.87-212.13c56.26-56.26,132.57-87.87,212.13-87.87s155.87,31.61,212.13,87.87c56.26,56.26,87.87,132.57,87.87,212.13s-31.6,155.87-87.87,212.13c-56.26,56.26-132.57,87.87-212.13,87.87Z"/>
  <g>
    <rect class="cls-1" x="333.21" y="207.19" width="75.23" height="329.89" rx="37.62" ry="37.62" transform="translate(371.75 -153.22) rotate(45)"/>
    <rect class="cls-1" x="333.21" y="207.19" width="75.23" height="329.89" rx="37.62" ry="37.62" transform="translate(-154.53 371.21) rotate(-45)"/>
  </g>
</svg>