<?xml version="1.0" encoding="UTF-8"?>
<svg width="1200pt" height="1200pt" version="1.1" viewBox="0 0 1200 1200" xmlns="http://www.w3.org/2000/svg">
 <path d="m408 348h36c19.801 0 36-16.199 36-36s-16.199-36-36-36h-36c-99.238 0-180 80.762-180 180v336c0 99.238 80.762 180 180 180h336c99.238 0 180-80.762 180-180v-36c0-19.801-16.199-36-36-36s-36 16.199-36 36v36c0 59.52-48.48 108-108 108h-336c-59.52 0-108-48.48-108-108v-336c0-59.52 48.48-108 108-108z"/>
 <path d="m846.48 255.48c-17.762-17.762-41.281-27.48-66.48-27.48s-48.719 9.7188-66.48 27.48l-254.88 254.88c-24.961 24.961-38.641 58.078-38.641 93.359v78.719c0 26.039 10.078 50.52 28.559 68.879 18.48 18.359 42.84 28.559 68.879 28.559h78.84c35.281 0 68.398-13.68 93.359-38.641l254.88-254.88c17.762-17.762 27.48-41.281 27.48-66.48s-9.7188-48.719-27.48-66.48l-98.039-98.039zm47.16 180-254.88 254.88c-11.281 11.281-26.398 17.641-42.48 17.641h-78.84c-6.7188 0-13.199-2.7617-18-7.4414-4.8008-4.8008-7.4414-11.16-7.4414-18v-78.719c0-16.078 6.2383-31.078 17.52-42.48l254.88-254.88c8.3984-8.3984 22.559-8.3984 31.078 0l98.039 98.039c4.0781 4.1992 6.4805 9.6016 6.4805 15.48s-2.2812 11.398-6.4805 15.48z"/>
</svg>
