<?xml version="1.0" encoding="UTF-8"?>
<svg id="Layer_1" xmlns="http://www.w3.org/2000/svg" version="1.1" viewBox="0 0 1223.4 1223.4">
  <!-- Generator: Adobe Illustrator 29.8.2, SVG Export Plug-In . SVG Version: 2.1.1 Build 3)  -->
  <defs>
    <style>
      .st0 {
        fill: #333;
        stroke: #333;
        stroke-miterlimit: 10;
        stroke-width: 60px;
      }
    </style>
  </defs>
  <path class="st0" d="M1193.4,497v286.3c0,131.3-106.8,238.1-238.1,238.1s-127,25.5-173.3,71.8l-50.4,50.4c-32.1,32.1-74.7,49.8-120.1,49.8s-88-17.7-120.1-49.8l-50.4-50.2c-46.2-46.2-107.6-71.7-172.9-71.8-131.3,0-238.1-106.8-238.1-238.1V268.1c0-131.3,106.8-238.1,238.1-238.1h458.1c26.1,0,47.3,21.2,47.3,47.3s-21.2,47.3-47.3,47.3h-458.1c-79.2,0-143.6,64.4-143.6,143.6v515.3c0,79.2,64.4,143.6,143.6,143.6s176,35.3,240.1,99.4l50.3,50.1c13.9,14.1,32.8,21.9,53.1,21.9s39-7.8,53.1-21.8l50.4-50.4c64.1-64.1,149.4-99.4,240.1-99.4s143.6-64.4,143.6-143.6v-286.3c0-26.1,21.2-47.3,47.3-47.3s47.3,21.2,47.3,47.3h0Z"/>
  <path class="st0" d="M30,497c0-26.1,21.2-47.3,47.3-47.3s47.3,21.2,47.3,47.3v286.3c0,79.2,64.4,143.6,143.6,143.6s176,35.3,240.1,99.4l50.4,50.4c14.1,14.1,32.7,21.8,53.1,21.8s39.2-7.8,53.1-21.9l50.3-50.1c64.1-64.1,149.4-99.4,240.1-99.4s143.6-64.4,143.6-143.6V268.1c0-79.2-64.4-143.6-143.6-143.6h-458.1c-26.1,0-47.3-21.2-47.3-47.3s21.2-47.3,47.3-47.3h458.1c131.3,0,238.1,106.8,238.1,238.1v515.3c0,131.3-106.8,238.1-238.1,238.1-65.3,0-126.7,25.6-172.9,71.8l-50.4,50.2c-32.1,32.1-74.7,49.8-120.1,49.8s-88-17.7-120.1-49.8l-50.4-50.4c-46.3-46.3-107.9-71.8-173.3-71.8-131.3,0-238.1-106.8-238.1-238.1v-286.3h0Z"/>
  <g>
    <g>
      <path class="st0" d="M814.6,433.5h-458.1c-26.1,0-47.3-21.2-47.3-47.3s21.2-47.3,47.3-47.3h458.1"/>
      <path class="st0" d="M408.8,338.9h458.1c26.1,0,47.3,21.2,47.3,47.3s-21.2,47.3-47.3,47.3h-458.1"/>
    </g>
    <g>
      <path class="st0" d="M814.6,731.9h-458.1c-26.1,0-47.3-21.2-47.3-47.3s21.2-47.3,47.3-47.3h458.1"/>
      <path class="st0" d="M408.8,637.4h458.1c26.1,0,47.3,21.2,47.3,47.3s-21.2,47.3-47.3,47.3h-458.1"/>
    </g>
  </g>
</svg>