<?xml version="1.0" encoding="UTF-8"?>
<svg id="Layer_1" data-name="Layer 1" xmlns="http://www.w3.org/2000/svg" viewBox="0 0 744 744">
  <defs>
    <style>
      .cls-1 {
        fill: #fff;
      }
    </style>
  </defs>
  <path class="cls-1" d="M155.76,636c39.48,0,76.56,15.36,104.52,43.32l31.68,31.56c21.36,21.36,49.68,33.12,79.92,33.12s58.56-11.76,79.92-33.12l31.68-31.68c27.96-27.96,65.04-43.32,104.52-43.32,86.04,0,156-69.96,156-156v-180c0-19.8-16.2-36-36-36s-36,16.2-36,36v180c0,46.32-37.68,84-84,84-58.68,0-113.88,22.8-155.4,64.32l-31.68,31.68c-7.68,7.68-17.88,11.88-28.92,11.88s-21.36-4.2-28.92-11.88l-31.68-31.56c-41.52-41.52-96.72-64.32-155.4-64.32-46.32,0-84-37.68-84-84V156c0-46.32,37.68-84,84-84h288c19.8,0,36-16.2,36-36S463.8,0,444,0H156C69.96,0,0,69.96,0,156v324c0,86.04,69.96,156,156,156h-.24Z"/>
  <path class="cls-1" d="M515.76,384H227.76c-19.8,0-36,16.2-36,36s16.2,36,36,36h288c19.8,0,36-16.2,36-36s-16.2-36-36-36Z"/>
  <path class="cls-1" d="M515.76,204H227.76c-19.8,0-36,16.2-36,36s16.2,36,36,36h288c19.8,0,36-16.2,36-36s-16.2-36-36-36Z"/>
  <path class="cls-1" d="M611.88,81.12c21.96,11.04,39.84,28.8,50.88,50.88l4.68,9.36c1.2,2.4,3.24,2.76,4.44,2.76s3.24-.36,4.44-2.76l4.68-9.36c11.04-21.96,28.8-39.84,50.88-50.88l9.36-4.68c2.4-1.2,2.76-3.24,2.76-4.44s-.36-3.24-2.76-4.32l-9.36-4.68c-21.96-11.04-39.84-28.92-50.88-50.88l-4.68-9.36c-1.2-2.4-3.24-2.76-4.44-2.76s-3.24.36-4.44,2.76l-4.68,9.36c-11.04,21.96-28.8,39.84-50.88,50.88l-9.36,4.68c-2.4,1.2-2.76,3.24-2.76,4.32s.36,3.24,2.76,4.44l9.36,4.68Z"/>
</svg>