<?xml version="1.0" encoding="UTF-8"?>
<svg id="Layer_1" data-name="Layer 1" xmlns="http://www.w3.org/2000/svg" viewBox="0 0 1162.96 1162.96">
  <defs>
    <style>
      .cls-1 {
        fill: #fff;
      }
    </style>
  </defs>
  <path class="cls-1" d="M581.48,0C260.67,0,0,260.68,0,581.48s260.68,581.48,581.48,581.48,581.48-260.68,581.48-581.48C1163.01,260.67,902.33,0,581.48,0h0ZM829.26,855.98c-10.27,9.38-22.73,14.25-35.62,14.25s-26.72-5.81-36.56-15.61l-.47-.47-175.13-182.72-175.55,183.14c-9.8,9.8-23.16,15.61-36.56,15.61s-25.41-4.92-35.2-13.83l-.47-.47c-9.8-9.38-15.61-22.27-15.61-36.09-.47-13.83,4.92-26.72,14.25-36.56l178.22-186.28-178.22-186.28c-9.38-9.8-14.72-22.73-14.25-36.56.47-13.83,5.81-26.3,15.61-36.09,20.48-19.59,53.02-18.7,72.61,1.36l174.66,182.72,175.13-182.72c19.59-20.48,52.12-20.95,72.61-1.36,9.8,9.38,15.61,22.27,15.61,36.09.47,13.83-4.92,26.72-14.25,36.56l-178.22,185.81,178.69,186.71c19.64,20.67,18.75,53.2-1.27,72.8h0Z"/>
</svg>