<?xml version="1.0" encoding="UTF-8"?>
<svg id="Layer_1" xmlns="http://www.w3.org/2000/svg" version="1.1" viewBox="0 0 860.8 832.3">
  <!-- Generator: Adobe Illustrator 29.8.2, SVG Export Plug-In . SVG Version: 2.1.1 Build 3)  -->
  <defs>
    <style>
      .st0 {
        fill: #fff;
      }
    </style>
  </defs>
  <path class="st0" d="M633.2,594.8v58.2c0,98.9-82.8,179.3-184.7,179.3H184.7C82.8,832.3,0,751.9,0,653V179.3C0,80.4,82.8,0,184.7,0h263.8C550.4,0,633.2,80.4,633.2,179.3v51.5c0,23.2-18.8,42-42,42s-42-18.8-42-42v-51.5c0-52.5-45.1-95.3-100.7-95.3H184.7c-55.5,0-100.7,42.7-100.7,95.3v473.8c0,52.5,45.1,95.3,100.7,95.3h263.8c55.5,0,100.7-42.7,100.7-95.3v-58.2c0-23.2,18.8-42,42-42s42,18.8,42,42h0ZM849.1,387.1l-109.8-114.4c-16.1-16.8-42.7-17.3-59.4-1.2-16.7,16.1-17.3,42.6-1.2,59.4l41.5,43.2h-283.7c-23.2,0-42,18.8-42,42s18.8,42,42,42h278.9l-35.8,34.8c-16.5,16.2-16.9,42.7-.7,59.4,8.2,8.4,19.1,12.7,30,12.7s21.2-3.9,29.4-12l109.8-106.8c16.5-16.1,17.1-42.6.9-59.2h.1Z"/>
</svg>