<?xml version="1.0" encoding="UTF-8"?>
<svg id="Layer_1" data-name="Layer 1" xmlns="http://www.w3.org/2000/svg" viewBox="0 0 1223.41 1223.41">
  <defs>
    <style>
      .cls-1 {
        fill: #ffbc15;
        stroke: #ffbc15;
        stroke-miterlimit: 10;
        stroke-width: 60px;
      }
    </style>
  </defs>
  <path class="cls-1" d="M1193.41,496.99v286.31c0,131.31-106.83,238.13-238.13,238.13-65.45,0-127,25.51-173.32,71.84l-50.39,50.39c-32.09,32.08-74.73,49.75-120.06,49.75s-87.97-17.67-120.06-49.77l-50.38-50.18c-46.23-46.23-107.64-71.74-172.94-71.84-131.31,0-238.13-106.82-238.13-238.13V268.14c0-131.31,106.82-238.14,238.13-238.14h458.09c26.06,0,47.26,21.2,47.26,47.26s-21.2,47.26-47.26,47.26h-458.09c-79.19,0-143.61,64.43-143.61,143.62v515.35c0,79.19,64.42,143.61,143.61,143.61,90.75,0,176.02,35.29,240.12,99.39l50.32,50.13c13.9,14.11,32.77,21.88,53.13,21.88s39.01-7.75,53.08-21.82l50.39-50.39c64.09-64.09,149.36-99.38,240.11-99.38,79.18,0,143.61-64.42,143.61-143.61v-286.31c0-26.06,21.2-47.26,47.26-47.26s47.26,21.2,47.26,47.26h0Z"/>
  <path class="cls-1" d="M30,496.99c0-26.06,21.2-47.26,47.26-47.26s47.26,21.2,47.26,47.26v286.31c0,79.19,64.43,143.61,143.61,143.61,90.75,0,176.02,35.29,240.11,99.38l50.39,50.39c14.07,14.07,32.72,21.82,53.08,21.82s39.23-7.77,53.13-21.88l50.32-50.13c64.1-64.1,149.37-99.39,240.12-99.39,79.19,0,143.61-64.42,143.61-143.61V268.14c0-79.19-64.42-143.62-143.61-143.62h-458.09c-26.06,0-47.26-21.2-47.26-47.26s21.2-47.26,47.26-47.26h458.09c131.31,0,238.13,106.83,238.13,238.14v515.35c0,131.31-106.82,238.13-238.13,238.13-65.3.1-126.71,25.61-172.94,71.84l-50.38,50.18c-32.09,32.1-74.73,49.77-120.06,49.77s-87.97-17.67-120.06-49.75l-50.39-50.39c-46.32-46.33-107.87-71.84-173.32-71.84-131.3,0-238.13-106.82-238.13-238.13v-286.31h0Z"/>
  <g>
    <g>
      <path class="cls-1" d="M814.63,433.46h-458.09c-26.06,0-47.26-21.2-47.26-47.26s21.2-47.26,47.26-47.26h458.09"/>
      <path class="cls-1" d="M408.78,338.94h458.09c26.06,0,47.26,21.2,47.26,47.26s-21.2,47.26-47.26,47.26h-458.09"/>
    </g>
    <g>
      <path class="cls-1" d="M814.63,731.94h-458.09c-26.06,0-47.26-21.2-47.26-47.26s21.2-47.26,47.26-47.26h458.09"/>
      <path class="cls-1" d="M408.78,637.42h458.09c26.06,0,47.26,21.2,47.26,47.26s-21.2,47.26-47.26,47.26h-458.09"/>
    </g>
  </g>
</svg>