<?xml version="1.0" encoding="UTF-8"?>
<svg id="Layer_1" data-name="Layer 1" xmlns="http://www.w3.org/2000/svg" viewBox="0 0 344.72 235.31">
  <defs>
    <style>
      .cls-1 {
        fill: #fff;
      }

      .cls-2 {
        fill: #333;
      }
    </style>
  </defs>
  <path class="cls-1" d="M289.61,235.31v-108.26c0-22.63-9.33-33.94-28-33.95-18.67,0-28.02,11.31-28.06,33.95v108.26h-55.15v-108.26c0-22.63-9.19-33.94-27.57-33.95-18.7,0-28.03,11.32-28,33.95v108.26h-55.16v-114.65c0-23.62,8.2-41.5,24.6-53.63,14.44-10.83,33.96-16.25,58.56-16.25s43.31,6.4,55.12,19.19c10.17-12.79,28.71-19.19,55.62-19.19,24.6,0,44.11,5.42,58.54,16.25,16.4,12.13,24.6,30,24.61,53.63v114.65h-55.11Z"/>
  <path class="cls-2" d="M174.74,42.44L229.48,2.44l-.7-2.44C130,12.11,85.08,20.69,0,70.01l.79,2.24,6.76.07c-.62,6.81-1.7,23.64-.32,48.95-9.44,27.32-.24,45.88,8.4,66.07,1.37-21,1.23-44-5.22-66.89-1.35-25.14-.24-41.67.37-48.1l56.4.54c-.15,11.04.41,22.09,1.67,33.06,50.4,17.71,101.09-.06,128-43.72-7.47-8.37-22.11-19.79-22.11-19.79h0Z"/>
</svg>