<?xml version="1.0" encoding="UTF-8"?>
<svg id="Layer_1" data-name="Layer 1" xmlns="http://www.w3.org/2000/svg" viewBox="0 0 792.38 739.53">
  <defs>
    <style>
      .cls-1 {
        fill: #6ebdf4;
      }
    </style>
  </defs>
  <path class="cls-1" d="M687.88,52.82h-265.29v-25.87c0-11.76-7.53-22.11-18.26-25.65-.72-.24-1.46-.45-2.21-.62-.33-.07-.65-.14-.98-.21-.19-.04-.38-.07-.57-.1-.27-.05-.55-.09-.83-.12-.09-.02-.18-.03-.27-.04-.32-.04-.66-.08-.99-.1-.12-.02-.25-.03-.38-.03-.26-.03-.53-.04-.79-.06-.74-.03-1.49-.03-2.25,0-.26.02-.53.03-.79.06-.08,0-.15,0-.23.01-.05,0-.1.01-.15.02-.33.02-.67.06-.99.1-.09.01-.18.02-.27.04-.27.03-.54.07-.81.12-.21.03-.42.06-.63.11-.3.06-.61.12-.91.19-.01.01-.02.01-.04.01-.74.17-1.47.38-2.18.61-10.58,3.44-18.3,13.42-18.3,25.12v26.41H104.5C47.02,52.82,0,99.85,0,157.32v318.09c0,58.35,47.3,105.64,105.65,105.64h245.1l-154.77,110.67c-11.88,8.45-14.52,24.83-6.07,36.72.48.68.98,1.32,1.51,1.94.36.41.72.8,1.09,1.19.19.2.38.39.57.56.37.36.75.71,1.14,1.05.01,0,.02.02.03.02.2.17.4.34.6.5.41.32.82.64,1.24.94.21.15.42.3.64.44,0,.01,0,.01.02.01.54.36,1.09.7,1.65,1.01,0,0,0,.01.01.01,8.61,4.83,19.59,4.53,28.21-1.6l143.16-102.22v80.29c0,11.31,6.97,21.31,17.04,25.21.32.13.65.25.98.36.02.01.04.02.06.02.36.12.72.23,1.09.33.08.03.15.05.23.07.22.07.44.12.66.18.27.07.54.13.82.19.13.03.27.06.4.08.31.07.62.12.93.17.15.02.29.05.44.06.22.04.44.07.66.09.23.03.46.06.7.07.08.01.16.02.24.03.12.01.24.02.36.02.21.02.43.03.64.04.76.04,1.54.04,2.32,0,.21,0,.43-.02.64-.04.12,0,.24-.01.36-.02.08,0,.16,0,.24-.03.24-.01.47-.04.7-.07.22-.02.44-.05.66-.09.15,0,.3-.03.44-.06.31-.05.62-.1.93-.17.13-.02.27-.05.4-.08.28-.06.55-.12.82-.19.22-.06.44-.11.66-.18.08-.02.16-.04.23-.07.37-.1.73-.21,1.09-.33.02-.01.04-.01.06-.02.33-.11.66-.23.98-.36,9.94-3.79,17.04-13.45,17.04-24.68v-80.82l143.16,102.22c4.49,3.43,10.03,5.02,15.32,5.02,3.46,0,6.91-.72,10.13-2.08.58-.25,1.16-.51,1.73-.81.27-.13.53-.27.79-.41.26-.14.52-.28.77-.44.14-.07.27-.15.4-.25.13-.09.27-.17.4-.26.17-.11.35-.23.53-.34.17-.1.35-.23.52-.35.61-.44,1.2-.9,1.78-1.39.01-.01.02-.02.03-.02.39-.34.77-.69,1.14-1.05.19-.19.38-.37.57-.56.37-.39.73-.78,1.09-1.19.52-.62,1.03-1.26,1.51-1.94,8.45-11.89,5.81-28.27-6.07-36.72l-154.77-110.67h245.1c58.35,0,105.65-47.29,105.65-105.64V157.32c0-57.47-47.03-104.5-104.5-104.5ZM158.47,211.29h474.87c13.85,0,25.75,10.45,26.86,24.25.27,3.31-.08,6.52-.95,9.51-.14.48-.3.95-.46,1.42-.09.25-.18.5-.28.75-.09.25-.19.5-.3.74-.15.35-.31.7-.48,1.05-.02.06-.05.13-.09.19-.13.29-.28.57-.44.85-.05.11-.11.21-.17.32-.12.23-.25.45-.39.67-.14.25-.3.5-.45.74-4.68,7.4-12.95,12.34-22.31,12.34H159.01c-9.52,0-18.12-4.94-22.93-12.51-.21-.35-.42-.7-.63-1.05-.15-.26-.29-.52-.43-.79-.1-.18-.19-.37-.27-.55-.05-.09-.09-.18-.13-.27-.14-.27-.26-.54-.38-.81-.06-.14-.12-.29-.18-.43-.14-.31-.26-.63-.37-.95-.16-.4-.3-.81-.42-1.23-.58-1.8-.96-3.7-1.12-5.67-1.25-15.49,11.08-28.57,26.32-28.57ZM159.01,422.58c-13.85,0-25.75-10.44-26.86-24.25-1.25-15.49,11.08-28.57,26.32-28.57h342.81c13.85,0,25.75,10.45,26.87,24.25,1.24,15.49-11.09,28.57-26.33,28.57H159.01Z"/>
</svg>