<?xml version="1.0" encoding="UTF-8"?>
<svg width="1200pt" height="1200pt" version="1.1" viewBox="0 0 1200 1200" xmlns="http://www.w3.org/2000/svg">
 <path d="m373.13 98.812h-227.45c-12.434 0-24.355 4.9375-33.148 13.727-8.7891 8.793-13.727 20.715-13.727 33.148v227.44c0 16.746 8.9336 32.219 23.438 40.594 14.504 8.3711 32.371 8.3711 46.875 0 14.504-8.375 23.438-23.848 23.438-40.594v-180.56h180.58c16.746 0 32.223-8.9336 40.594-23.438 8.375-14.504 8.375-32.371 0-46.875-8.3711-14.504-23.848-23.438-40.594-23.438z"/>
 <path d="m1101.2 145.69c0-12.434-4.9375-24.355-13.727-33.148-8.793-8.7891-20.715-13.727-33.148-13.727h-227.45c-16.746 0-32.223 8.9336-40.594 23.438-8.375 14.504-8.375 32.371 0 46.875 8.3711 14.504 23.848 23.438 40.594 23.438h180.58v180.56c0 16.746 8.9336 32.219 23.438 40.594 14.504 8.3711 32.371 8.3711 46.875 0 14.504-8.375 23.438-23.848 23.438-40.594z"/>
 <path d="m98.805 1054.3c0 12.434 4.9375 24.355 13.727 33.148 8.793 8.7891 20.715 13.727 33.148 13.727h227.45c16.746 0 32.223-8.9336 40.594-23.438 8.375-14.504 8.375-32.371 0-46.875-8.3711-14.504-23.848-23.438-40.594-23.438h-180.58v-180.56c0-16.746-8.9336-32.219-23.438-40.594-14.504-8.3711-32.371-8.3711-46.875 0-14.504 8.375-23.438 23.848-23.438 40.594z"/>
 <path d="m1101.2 826.88c0-16.746-8.9336-32.219-23.438-40.594-14.504-8.3711-32.371-8.3711-46.875 0-14.504 8.375-23.438 23.848-23.438 40.594v180.56h-180.58c-16.746 0-32.223 8.9336-40.594 23.438-8.375 14.504-8.375 32.371 0 46.875 8.3711 14.504 23.848 23.438 40.594 23.438h227.45c12.434 0 24.355-4.9375 33.148-13.727 8.7891-8.793 13.727-20.715 13.727-33.148z"/>
 <path d="m205.34 600c-0.003907 12.434 4.9375 24.355 13.727 33.148 8.793 8.7891 20.715 13.727 33.148 13.727h695.58c16.75 0 32.223-8.9336 40.598-23.438 8.3711-14.504 8.3711-32.371 0-46.875-8.375-14.504-23.848-23.438-40.598-23.438h-695.58c-12.434 0-24.355 4.9375-33.148 13.727-8.7891 8.793-13.73 20.715-13.727 33.148z"/>
</svg>
