<?xml version="1.0" encoding="UTF-8"?>
<svg id="Isolation_Mode" data-name="Isolation Mode" xmlns="http://www.w3.org/2000/svg" viewBox="0 0 481.23 467.48">
  <defs>
    <style>
      .cls-1 {
        fill: #fff;
        fill-rule: evenodd;
      }
    </style>
  </defs>
  <path class="cls-1" d="M333.12,4.99l14.91,86.09c1.9,10.97,6.97,20.58,14.26,27.86,7.3,7.3,16.91,12.36,27.86,14.26l86.09,14.91c3.26.55,5.46,3.66,4.9,6.92-.44,2.58-2.46,4.48-4.9,4.9l-86.09,14.91c-10.96,1.9-20.57,6.96-27.86,14.26-7.3,7.3-12.36,16.91-14.26,27.86l-14.91,86.09c-.55,3.26-3.66,5.46-6.92,4.9-2.58-.44-4.48-2.46-4.9-4.9l-14.91-86.09c-1.9-10.96-6.96-20.57-14.26-27.86-7.29-7.29-16.9-12.36-27.86-14.26l-86.09-14.91c-3.26-.55-5.46-3.66-4.9-6.92.44-2.58,2.46-4.48,4.9-4.9l86.09-14.91c10.97-1.9,20.58-6.97,27.86-14.26,7.29-7.29,12.36-16.9,14.26-27.86l14.91-86.09c.55-3.26,3.66-5.46,6.92-4.9,2.58.44,4.48,2.46,4.9,4.9h0Z"/>
  <path class="cls-1" d="M103.24,271.85l9.62,55.57c1.23,7.08,4.5,13.28,9.2,17.99,4.71,4.71,10.92,7.98,17.99,9.2l55.57,9.62c2.11.36,3.52,2.36,3.16,4.47-.28,1.66-1.59,2.89-3.16,3.16l-55.57,9.62c-7.07,1.23-13.28,4.49-17.99,9.2-4.71,4.71-7.98,10.92-9.2,17.99l-9.62,55.57c-.36,2.11-2.36,3.52-4.47,3.16-1.66-.28-2.89-1.59-3.16-3.16l-9.62-55.57c-1.23-7.07-4.49-13.28-9.2-17.99-4.7-4.7-10.91-7.98-17.99-9.2l-55.57-9.62c-2.11-.36-3.52-2.36-3.16-4.47.28-1.66,1.59-2.89,3.16-3.16l55.57-9.62c7.08-1.23,13.28-4.5,17.99-9.2,4.7-4.7,7.98-10.91,9.2-17.99l9.62-55.57c.36-2.11,2.36-3.52,4.47-3.16,1.66.28,2.89,1.59,3.16,3.16h0Z"/>
</svg>